<?xml version="1.0" encoding="utf-8"?>
<!-- Generator: Adobe Illustrator 19.1.0, SVG Export Plug-In . SVG Version: 6.00 Build 0)  -->
<!DOCTYPE svg PUBLIC "-//W3C//DTD SVG 1.1//EN" "http://www.w3.org/Graphics/SVG/1.1/DTD/svg11.dtd">
<svg version="1.1" id="Layer_1" xmlns="http://www.w3.org/2000/svg" xmlns:xlink="http://www.w3.org/1999/xlink" x="0px" y="0px"
	 viewBox="1726 -525 3652 1250" style="enable-background:new 1726 -525 3652 1250;" xml:space="preserve">
<style type="text/css">
	.st0{fill:#2AC5EE;}
	.st1{fill:#E2E3E4;}
	.st2{fill:none;stroke:#E2E3E4;stroke-width:18.6934;}
</style>
<image style="display:none;overflow:visible;enable-background:new    ;" width="139" height="122" xlink:href="49DDF00E20623752.png"  transform="matrix(10.2696 0 0 10.2696 5068.2646 -1379.1638)">
</image>
<g>
	<g>
		<path class="st0" d="M3497.6,408.7c-6,64.6-67.9,200.6-143.3,200.6c-36.4,0-49.1-25.5-49.1-59.9c0-15.5,2.7-32.3,6.7-48.4
			c14.1-57.9,82.1-171.6,144.7-171.6c27.6,0,41.8,21.5,41.8,62.5C3498.3,397.2,3497.6,402.6,3497.6,408.7 M3525.8,506.9
			c37-116.4,55.2-174.3,75.4-190.5c1.4-0.6,1.4-2,1.4-2.7c0-3.4-10.8-4-10.8-4c-31.6,2.7-54.5,16.9-76.7,78
			c0-76.7-47.1-85.4-65.9-85.4c-86.8,0-203.9,151.4-203.9,256.4c0,41,24.3,90.8,78.8,90.8c59.9,0,124.5-74,141.3-114.4h1.4
			c-6.7,20.9-14.1,47.1-14.1,70c0,26.9,10.1,48.4,46.4,48.4c42.4,0,78-41,90.2-75.4c0.6-1.4,0.6-2.7,0.6-4c0-2.7-2-7.4-6.7-7.4
			c-4.7,0-8.1,5.4-8.1,5.4c-12.8,20.9-22.2,45.8-49.8,45.8c-10.8,0-15.5-12.1-15.5-28.9C3509.7,568.9,3515.8,539.9,3525.8,506.9
			 M3153.7,334.6c22.9,6.7,36.4,28.9,33,52.5c-3.4,29.6-27.6,113.7-160.8,100.9c15.5-45.1,16.9-48.4,17.5-51.8
			C3089.1,313.1,3153.7,334.6,3153.7,334.6 M3071,352.8h-2.7c1.4-22.2-6.7-39.7-27.6-45.8c-37-11.4-67.3,16.9-95.5,45.1
			c-2,2-7.4,8.1-3.4,13.5c0,0,6,7.4,12.8,1.4c21.5-20.1,37-37.7,54.5-29.6c7.4,3.4,12.8,12.1,4.7,36.4c-6,16.9-16.1,39.7-96.3,270.5
			c-2,5.4,4,5.4,4,5.4s36.4-8.8,43-11.4c7.4-2.7,8.1-8.8,8.1-8.8s20.9-49.1,41-107.7c31,11.4,65.9,97.6,82.1,125.8
			c26.3,44.4,64.6,72.7,115.8,62.5c9.4-1.4,26.9-5.4,33-13.5c4.7-6.7-19.5-2.7-20.9-2c-44.4,8.8-107.7-131.9-123.2-160.2
			c-6.7-12.8-15.5-21.5-25.5-26.9c125.8-8.8,160.2-102.9,162.2-111.7c23.5-74-39.7-88.2-58.5-90.2
			C3159.1,304.4,3118.7,307,3071,352.8 M2799.7,408.7c-6,64.6-67.9,200.6-143.3,200.6c-36.4,0-49.1-25.5-49.1-59.9
			c0-15.5,2.7-32.3,6.7-48.4c14.1-57.9,82.1-171.6,144.7-171.6c27.6,0,41.8,21.5,41.8,62.5C2800.5,397.2,2799.7,402.6,2799.7,408.7
			 M2828,506.9c37-116.4,55.2-174.3,75.4-190.5c1.4-0.6,1.4-2,1.4-2.7c0-3.4-10.8-4-10.8-4c-31.6,2.7-54.5,16.9-76.7,78
			c0-76.7-47.1-85.4-65.9-85.4c-86.8,0-203.9,151.4-203.9,256.4c0,41,24.3,90.8,78.8,90.8c59.9,0,124.5-74,141.3-114.4h1.4
			c-6.7,20.9-14.1,47.1-14.1,70c0,26.9,10.1,48.4,46.4,48.4c42.4,0,78-41,90.2-75.4c0.6-1.4,0.6-2.7,0.6-4c0-2.7-2-7.4-6.7-7.4
			c-4.7,0-8.1,5.4-8.1,5.4c-12.8,20.9-22.2,45.8-49.8,45.8c-10.8,0-15.5-12.1-15.5-28.9C2811.9,568.9,2818,539.9,2828,506.9
			 M2760.1,215.5c-12.1,3.4-24.3,4.7-36.4,4.7c-55.2,0-105.7-37-146.7-69.3c42.4-63.9,109-137.3,186.4-137.3
			c53.2,0,92.2,33.6,92.2,84.8C2855.6,148.2,2803.8,200.1,2760.1,215.5 M2410.1,410c-4,64.6-62.5,200.6-137.9,200.6
			c-35.6,0-47.1-23.5-47.1-56.5c0-16.1,2.7-33.6,6.7-51.8c13.5-57.2,80-171.6,138.7-171.6c26.3,0,40.4,22.2,40.4,63.9
			C2410.8,399.2,2410.1,404.7,2410.1,410 M2863,10.3c-20.9-13.5-45.1-18.9-70-18.9c-97.6,0-187.7,66.6-243.6,136.6
			c-27.6-24.9-52.5-51.1-72.7-74c-61.9-70.7-104.3-156.8-170.9-223.5c-50.5-50.5-113.1-72-177-72c-92.9,0-216,47.1-216,145.3
			c0,92.9,111,133.2,182.3,133.2c57.9,0,142-15.5,179.7-64.6c5.4-6.7,7.4-12.8,7.4-18.1c0-12.8-12.8-20.9-24.3-20.9
			c-6.7,0-13.5,3.4-15.5,10.1c-14.8,51.1-59.3,68.7-105.7,76c-105.6,16.1-203.1-35.7-203.1-120.5c0-76.7,94.9-125.2,170.9-125.2
			c82.8,0,153.4,52.5,202.6,115.1c71.3,92.2,126.5,192.5,222.7,266.5c-46.4,66.6-78,145.3-100.9,220.1c-4-63.9-51.8-72-67.9-72
			c-85.4,0-201.9,146.1-201.9,251c0,41,24.9,96.9,82.8,96.9c59.9,0,123.8-74.7,140-115.1h1.4c-5.4,18.1-11.4,41.8-11.4,62.5
			c0,30.3,11.4,55.9,51.1,55.9c42.4,0,78-40.4,89.5-75.4c0.6-1.4,0.6-2.7,0.6-4c0-2.7-2.7-6.7-7.4-6.7c-4.7,0-7.4,4.7-7.4,4.7
			c-11.4,20.1-21.5,45.8-47.1,45.8c-16.1,0-21.5-13.5-21.5-35.6c0-41,19.5-103.7,22.9-116.4c23.5-88.8,53.8-195.8,107.7-288.7
			c49.1,31,91.5,52.5,151.4,57.9c82.8,7.4,194.5-56.5,194.5-148.7C2906.1,56.7,2889.9,27.8,2863,10.3"/>
	</g>
	<path class="st1" d="M4960.6,405.9c43,0,69.3,26.9,70.7,67.3H4888C4896,424.8,4928.2,405.9,4960.6,405.9 M5101.2,524.4
		c2-10.1,3.4-24.9,3.4-36.4c0-78-49.1-141.3-143.3-141.3c-90.8,0-149.4,70-149.4,153.4c0,91.5,66.6,152.1,162.8,152.1
		c43,0,80.8-8.8,111.7-26.9l6-65.9c-34.3,19.5-71.3,31-107,31c-49.1,0-86.8-20.1-96.9-65.9L5101.2,524.4L5101.2,524.4z
		 M4735.1,346.8c-37.7,0-68.7,32.3-93.5,72v-66.6h-114.4v61.9h43.8v172.3h-43.8v60.5h168.2v-60.6h-51.1V470.5
		c13.5-25.5,37.7-48.4,58.5-55.9c6,13.5,20.9,26.3,43,26.3c24.3,0,43.8-20.9,43.8-45.8C4789.7,368.9,4771.5,346.8,4735.1,346.8
		 M4286.3,599.1c-26.3,0-43.8-12.8-43.8-36.4c0-26.9,21.5-43,57.2-43c22.9,0,43.8,2.7,60.5,6.7v46.4
		C4338.1,589,4312.6,599.1,4286.3,599.1 M4262.8,652.3c39.7,0,75.4-17.5,98.9-37.7v32.3h113.7v-60.6h-43.8V460.5
		c0-29.6-7.4-55.2-22.9-74c-20.9-25.5-55.2-39.7-105.7-39.7c-80,0-117.1,38.4-117.1,74.7c0,24.3,16.9,39.7,39,39.7
		c22.2,0,39.7-16.1,39.7-38.4c0-4-1.4-10.8-2.7-14.8c6.7-2.7,16.1-4.7,28.9-4.7c26.3,0,45.8,6,57.9,21.5
		c7.4,9.4,11.4,22.9,11.4,40.4v23.6c-16.1-4-44.4-8.1-74.7-8.1c-70,0-118.4,33.6-118.4,88.8C4167.1,624.7,4212.3,652.3,4262.8,652.3
		 M3962.6,646.9h162.8v-60.6h-43.8v-432h-119.1v61.9h45.8v370.2h-45.8v60.5H3962.6z M3801.8,652.3c43,0,73.4-8.8,104.9-26.9l6-65.9
		c-38.4,20.9-69.3,31-104.9,31c-52.5,0-95.5-35.6-95.5-92.2c0-64.6,41.8-92.2,75.4-92.2c28.9,0,47.1,12.8,52.5,20.1
		c-5.4,6-9.4,16.1-9.4,24.9c0,24.3,20.1,44.4,44.4,44.4c26.3,0,47.1-18.9,47.1-49.8c0-46.4-53.2-98.9-133.9-98.9
		c-87.5,0-149.4,73.4-149.4,150.1C3638.9,591.7,3708.9,652.3,3801.8,652.3"/>
	<line class="st2" x1="4227.3" y1="242.7" x2="5022.2" y2="242.7"/>
</g>
</svg>
