<?xml version="1.0" encoding="utf-8"?>
<!-- Generator: Adobe Illustrator 19.1.0, SVG Export Plug-In . SVG Version: 6.00 Build 0)  -->
<!DOCTYPE svg PUBLIC "-//W3C//DTD SVG 1.1//EN" "http://www.w3.org/Graphics/SVG/1.1/DTD/svg11.dtd">
<svg version="1.1" id="Layer_1" xmlns="http://www.w3.org/2000/svg" xmlns:xlink="http://www.w3.org/1999/xlink" x="0px" y="0px"
	 viewBox="1615 -327.7 3652 1250" style="enable-background:new 1615 -327.7 3652 1250;" xml:space="preserve">
<style type="text/css">
	.st0{fill:#0099CC;}
	.st1{fill:#C6C6C5;}
	.st2{fill:none;stroke:#C6C6C5;stroke-width:21.2;}
</style>
<image style="display:none;overflow:visible;enable-background:new    ;" width="143" height="125" xlink:href="CE96FFE3E680ACD5.png"  transform="matrix(10 0 0 10 1615 -327.72)">
</image>
<g id="XMLID_9_">
	<path id="XMLID_13_" class="st0" d="M1628.5-951.1h71c65.6,0,108.7,39.2,108.7,106.9c0,68-43.1,107.5-108.7,107.5h-71V-951.1z
		 M1697.4-762.8c48.3,0,79.9-28.5,79.9-81.4c0-52.5-31.9-80.8-79.9-80.8h-38.8v162.1h48.8V-762.8z"/>
	<path id="XMLID_16_" class="st0" d="M2092-798.4h-80.8l-21.2,61.6h-31l77.1-214.4h41.6l77.1,214.4h-31.3L2092-798.4z M2051.6-921.6
		c0,0-4.9,19.4-8.5,30.4l-24,68h65l-23.7-68c-3.6-10.9-8.2-30.4-8.2-30.4H2051.6z"/>
	<path id="XMLID_19_" class="st0" d="M2310.2-951.1h65.6c22.5,0,31.9,1.8,40.1,4.9c21.9,8.2,36.1,29.8,36.1,58
		c0,27.3-15.2,50.4-38.5,58v0.6c0,0,2.4,2.7,6.4,9.7l45.6,83.2h-34l-45.4-85.3h-45.9v85.3h-30.1L2310.2-951.1L2310.2-951.1z
		 M2383.3-848.2c23.4,0,38-14.9,38-38.9c0-15.8-6.1-27-17-33.1c-5.8-3-12.8-4.9-29.4-4.9h-34.6v76.8h33V-848.2z"/>
	<path id="XMLID_22_" class="st0" d="M2744.8-798.4H2664l-21.2,61.6h-31l77.1-214.4h41.6l77.1,214.4h-31.3L2744.8-798.4z
		 M2704.4-921.6c0,0-4.9,19.4-8.5,30.4l-24,68h65l-23.7-68c-3.6-10.9-8.2-30.4-8.2-30.4H2704.4z"/>
</g>
<g id="XMLID_10_">
	<path id="XMLID_31_" class="st0" d="M3761.7-1478.1c51.6,0,78,28.2,78,28.2l-14.9,22.5c0,0-24.9-23.4-61.9-23.4
		c-48,0-79.2,36.4-79.2,82c0,45.8,31.9,84.7,79.6,84.7c40.4,0,66.2-27.9,66.2-27.9l16.1,21.6c0,0-29.4,34-83.2,34
		c-64.4,0-109.6-49.2-109.6-112C3652.7-1430.8,3699.5-1478.1,3761.7-1478.1z"/>
	<path id="XMLID_33_" class="st0" d="M4020.2-1474.5h40.1v188.2h95.9v26.1h-126V-1474.5z"/>
	<path id="XMLID_35_" class="st0" d="M4423.9-1321.8h-80.7l-21.3,61.6h-31l77.1-214.4h41.6l77.1,214.4h-31.3L4423.9-1321.8z
		 M4383.5-1445c0,0-4.9,19.4-8.5,30.4l-24,68h65l-23.7-68c-3.6-10.9-8.2-30.4-8.2-30.4h3383.5z"/>
	<path id="XMLID_38_" class="st0" d="M4642.1-1474.5h65.6c22.5,0,31.9,1.8,40.1,4.9c21.9,8.2,36.1,29.8,36.1,58
		c0,27.3-15.2,50.4-38.5,58v0.6c0,0,2.4,2.7,6.4,9.7l45.6,83.2h-34l-45.2-85.3h-45.9v85.3h-30.1v-214.4h3642.1z M4715.2-1371.6
		c23.4,0,38-14.9,38-38.9c0-15.8-6.1-27-17-33.1c-5.8-3-12.8-4.9-29.4-4.9h-34.6v76.8L4715.2-1371.6L4715.2-1371.6z"/>
	<path id="XMLID_41_" class="st0" d="M4970.5-1474.5h124.4v26.1h-94.4v67.1h76.8v26.1h-76.8v68.9h99.6v26.1h-129.6V-1474.5z"/>
</g>
<g>
	<g>
		<path class="st1" d="M5087.6,548.2c48.8,0,78.6,30.5,80.1,76.3h-162.6C5014.3,569.6,5050.9,548.2,5087.6,548.2 M5247.1,682.5
			c2.3-11.4,3.8-28.2,3.8-41.2c0-88.5-55.7-160.3-162.6-160.3c-103,0-169.4,79.4-169.4,174c0,103.8,75.6,172.5,184.7,172.5
			c48.8,0,91.6-9.9,126.7-30.5l6.9-74.8c-38.9,22.1-80.9,35.1-121.3,35.1c-55.7,0-98.5-22.9-109.9-74.8H5247.1z M4831.9,481.1
			c-42.7,0-77.8,36.6-106.1,81.7v-75.6h-129.7v70.2h39.6v195.4h-49.6v68.7h190.8v-68.7h-58V621.5c15.3-29,42.7-55,66.4-63.3
			c6.9,15.3,23.7,29.8,48.8,29.8c27.5,0,49.6-23.7,49.6-51.9C4893.7,506.2,4873.1,481.1,4831.9,481.1 M4322.9,767.3
			c-29.8,0-49.6-14.5-49.6-41.2c0-30.5,24.4-48.8,64.9-48.8c25.9,0,49.6,3.1,68.7,7.6v52.7C4381.6,755.8,4352.6,767.3,4322.9,767.3
			 M4296.1,827.5c45,0,85.5-19.8,112.2-42.7v36.6h129v-68.7h-49.6V610c0-33.6-8.4-62.6-25.9-84c-23.7-29-62.6-45-119.8-45
			c-90.8,0-132.8,43.5-132.8,84.7c0,27.5,19.1,45,44.3,45s45-18.3,45-43.5c0-4.6-1.5-12.2-3.1-16.8c7.6-3.1,18.3-5.3,32.8-5.3
			c29.8,0,51.9,6.9,65.6,24.4c8.4,10.7,13,25.9,13,45.8v26.7c-18.3-4.6-50.4-9.2-84.7-9.2c-79.4,0-134.3,38.2-134.3,100.7
			S4238.9,827.5,4296.1,827.5 M3955.8,821.4h184.7v-68.7h-49.6v-490h-135.1V333h51.9v419.8h-51.9V821.4z M3773.4,827.5
			c48.8,0,83.2-9.9,119.1-30.5l6.9-74.8c-43.5,23.7-78.6,35.1-119.1,35.1c-59.5,0-108.4-40.4-108.4-104.6
			c0-73.3,47.3-104.6,85.5-104.6c32.8,0,53.4,14.5,59.5,22.9c-6.1,6.9-10.7,18.3-10.7,28.2c0,27.5,22.9,50.4,50.4,50.4
			c29.8,0,53.4-21.4,53.4-56.5c0-52.7-60.3-112.2-151.9-112.2c-99.2,0-169.4,83.2-169.4,170.2C3588.7,758.9,3668,827.5,3773.4,827.5
			"/>
		<path class="st0" d="M3428.4,551.3c-6.9,73.3-77.1,227.4-162.6,227.4c-41.2,0-55.7-29-55.7-67.9c0-17.6,3.1-36.6,7.6-55
			c16-65.6,93.1-194.6,164.1-194.6c31.3,0,47.3,24.4,47.3,71C3429.2,538.3,3428.4,544.4,3428.4,551.3 M3460.5,662.7
			c42-132,62.6-197.7,85.5-216c1.5-0.8,1.5-2.3,1.5-3.1c0-3.8-12.2-4.6-12.2-4.6c-35.9,3.1-61.8,19.1-87,88.5
			c0-87-53.4-96.9-74.8-96.9c-98.5,0-231.2,171.7-231.2,290.8c0,46.6,27.5,103,89.3,103c67.9,0,141.2-84,160.3-129.7h1.5
			c-7.6,23.7-16,53.4-16,79.4c0,30.5,11.4,55,52.7,55c48.1,0,88.5-46.6,102.3-85.5c0.8-1.5,0.8-3.1,0.8-4.6c0-3.1-2.3-8.4-7.6-8.4
			c-5.3,0-9.2,6.1-9.2,6.1c-14.5,23.7-25.2,51.9-56.5,51.9c-12.2,0-17.6-13.7-17.6-32.8C3442.1,732.9,3449,700.1,3460.5,662.7
			 M3038.4,467.3c25.9,7.6,41.2,32.8,37.4,59.5c-3.8,33.6-31.3,129-182.4,114.5c17.6-51.1,19.1-55,19.8-58.8
			C2965.1,442.9,3038.4,467.3,3038.4,467.3 M2944.5,487.9h-3.1c1.5-25.2-7.6-45-31.3-51.9c-42-13-76.3,19.1-108.4,51.1
			c-2.3,2.3-8.4,9.2-3.8,15.3c0,0,6.9,8.4,14.5,1.5c24.4-22.9,42-42.7,61.8-33.6c8.4,3.8,14.5,13.7,5.3,41.2
			c-6.9,19.1-18.3,45-109.1,306.8c-2.3,6.1,4.6,6.1,4.6,6.1s41.2-9.9,48.8-13c8.4-3.1,9.2-9.9,9.2-9.9s23.7-55.7,46.6-122.1
			c35.1,13,74.8,110.7,93.1,142.7c29.8,50.4,73.3,82.4,131.3,71c10.7-1.5,30.5-6.1,37.4-15.3c5.3-7.6-22.1-3.1-23.7-2.3
			c-50.4,9.9-122.1-149.6-139.7-181.6c-7.6-14.5-17.6-24.4-29-30.5c142.7-9.9,181.6-116.8,183.9-126.7c26.7-84-45-100-66.4-102.3
			C3044.5,433,2998.7,436,2944.5,487.9 M2637,551.3c-6.9,73.3-77.1,227.4-162.6,227.4c-41.2,0-55.7-29-55.7-67.9
			c0-17.6,3.1-36.6,7.6-55c16-65.6,93.1-194.6,164.1-194.6c31.3,0,47.3,24.4,47.3,71C2637.7,538.3,2637,544.4,2637,551.3
			 M2669,662.7c42-132,62.6-197.7,85.5-216c1.5-0.8,1.5-2.3,1.5-3.1c0-3.8-12.2-4.6-12.2-4.6c-35.9,3.1-61.8,19.1-87,88.5
			c0-87-53.4-96.9-74.8-96.9c-98.5,0-231.2,171.7-231.2,290.8c0,46.6,27.5,103,89.3,103c67.9,0,141.2-84,160.3-129.7h1.5
			c-7.6,23.7-16,53.4-16,79.4c0,30.5,11.4,55,52.7,55c48.1,0,88.5-46.6,102.3-85.5c0.8-1.5,0.8-3.1,0.8-4.6c0-3.1-2.3-8.4-7.6-8.4
			c-5.3,0-9.2,6.1-9.2,6.1c-14.5,23.7-25.2,51.9-56.5,51.9c-12.2,0-17.6-13.7-17.6-32.8C2650.7,732.9,2657.6,700.1,2669,662.7
			 M2592,332.2c-13.7,3.8-27.5,5.3-41.2,5.3c-62.6,0-119.8-42-166.4-78.6c48.1-72.5,123.6-155.7,211.4-155.7
			c60.3,0,104.6,38.2,104.6,96.2C2700.3,255.9,2641.6,314.7,2592,332.2 M2195.1,552.8c-4.6,73.3-71,227.4-156.5,227.4
			c-40.4,0-53.4-26.7-53.4-64.1c0-18.3,3.1-38.2,7.6-58.8c15.3-64.9,90.8-194.6,157.2-194.6c29.8,0,45.8,25.2,45.8,72.5
			C2195.9,540.6,2195.1,546.7,2195.1,552.8 M2708.7,99.5c-23.7-15.3-51.1-21.4-79.4-21.4c-110.7,0-212.9,75.6-276.3,154.9
			c-31.3-28.2-59.5-58-82.4-84c-70.2-80.1-118.3-177.8-193.9-253.4c-57.2-57.2-128.2-81.7-200.7-81.7c-105.3,0-245,53.4-245,164.9
			c0,105.3,125.9,151.1,206.8,151.1c65.6,0,161-17.6,203.8-73.3c6.1-7.6,8.4-14.5,8.4-20.6c0-14.5-14.5-23.7-27.5-23.7
			c-7.6,0-15.3,3.8-17.6,11.4c-16.8,58-67.2,77.8-119.8,86.2c-119.8,18.3-230.5-40.4-230.5-136.6c0-87,107.6-142,193.9-142
			c93.9,0,174,59.5,229.7,130.5c80.9,104.6,143.5,218.3,252.6,302.2c-52.7,75.6-88.5,164.9-114.5,249.6
			c-4.6-72.5-58.8-81.7-77.1-81.7c-96.9,0-229,165.6-229,284.7c0,46.6,28.2,109.9,93.9,109.9c67.9,0,140.4-84.7,158.7-130.5h1.5
			c-6.1,20.6-13,47.3-13,71c0,34.3,13,63.3,58,63.3c48.1,0,88.5-45.8,101.5-85.5c0.8-1.5,0.8-3.1,0.8-4.6c0-3.1-3.1-7.6-8.4-7.6
			c-5.3,0-8.4,5.3-8.4,5.3c-13,22.9-24.4,51.9-53.4,51.9c-18.3,0-24.4-15.3-24.4-40.4c0-46.6,22.1-117.5,25.9-132
			c26.7-100.7,61.1-222.1,122.1-327.4c55.7,35.1,103.8,59.5,171.7,65.6c93.9,8.4,220.6-64.1,220.6-168.7
			C2757.6,152.1,2739.3,119.3,2708.7,99.5"/>
	</g>
	<line class="st2" x1="4256" y1="363" x2="5157.4" y2="363"/>
</g>
</svg>
