<?xml version="1.0" encoding="utf-8"?>
<!-- Generator: Adobe Illustrator 19.1.0, SVG Export Plug-In . SVG Version: 6.00 Build 0)  -->
<!DOCTYPE svg PUBLIC "-//W3C//DTD SVG 1.1//EN" "http://www.w3.org/Graphics/SVG/1.1/DTD/svg11.dtd">
<svg version="1.1" id="Layer_1" xmlns="http://www.w3.org/2000/svg" xmlns:xlink="http://www.w3.org/1999/xlink" x="0px" y="0px"
	 viewBox="1615 -327.7 3652 1250" style="enable-background:new 1615 -327.7 3652 1250;" xml:space="preserve">
<style type="text/css">
	.st0{fill:#0099CC;}
	.st1{fill:#CDCCCC;}
</style>
<image style="display:none;overflow:visible;enable-background:new    ;" width="143" height="125" xlink:href="CE96FFE3E680ACD6.png"  transform="matrix(10 0 0 10 1615 -327.72)">
</image>
<g id="XMLID_9_">
	<path id="XMLID_13_" class="st0" d="M1628.5,494.2h71c65.6,0,108.7,39.2,108.7,106.9c0,68-43.1,107.5-108.7,107.5h-71V494.2z
		 M1697.4,682.5c48.3,0,79.9-28.5,79.9-81.4c0-52.5-31.9-80.8-79.9-80.8h-38.8v162.1h48.8V682.5z"/>
	<path id="XMLID_16_" class="st0" d="M2092,646.9h-80.8l-21.2,61.6h-31l77.1-214.4h41.6l77.1,214.4h-31.3L2092,646.9z M2051.6,523.7
		c0,0-4.9,19.4-8.5,30.4l-24,68h65l-23.7-68c-3.6-10.9-8.2-30.4-8.2-30.4H2051.6z"/>
	<path id="XMLID_19_" class="st0" d="M2310.2,494.2h65.6c22.5,0,31.9,1.8,40.1,4.9c21.9,8.2,36.1,29.8,36.1,58
		c0,27.3-15.2,50.4-38.5,58v0.6c0,0,2.4,2.7,6.4,9.7l45.6,83.2h-34l-45.4-85.3h-45.9v85.3h-30.1L2310.2,494.2L2310.2,494.2z
		 M2383.3,597.1c23.4,0,38-14.9,38-38.9c0-15.8-6.1-27-17-33.1c-5.8-3-12.8-4.9-29.4-4.9h-34.6V597h33V597.1z"/>
	<path id="XMLID_22_" class="st0" d="M2744.8,646.9H2664l-21.2,61.6h-31l77.1-214.4h41.6l77.1,214.4h-31.3L2744.8,646.9z
		 M2704.4,523.7c0,0-4.9,19.4-8.5,30.4l-24,68h65l-23.7-68c-3.6-10.9-8.2-30.4-8.2-30.4H2704.4z"/>
</g>
<g>
	<path id="XMLID_25_" class="st1" d="M2943.8,612l141.5-63.2v27l-108.7,45.9v0.6l108.7,45.9v27L2943.8,632V612z"/>
	<path id="XMLID_27_" class="st1" d="M3325,482.7h26.1L3274,721.3h-26.1L3325,482.7z"/>
	<path id="XMLID_29_" class="st1" d="M3511.3,668.2l108.4-45.9v-0.6l-108.4-45.9v-27l141.5,63.2v20l-141.5,63.2V668.2z"/>
</g>
<g id="XMLID_10_">
	<path id="XMLID_31_" class="st0" d="M3920.1,490.6c51.6,0,78,28.2,78,28.2l-14.9,22.5c0,0-24.9-23.4-61.9-23.4
		c-48,0-79.2,36.4-79.2,82c0,45.8,31.9,84.7,79.6,84.7c40.4,0,66.2-27.9,66.2-27.9l16.1,21.6c0,0-29.4,34-83.2,34
		c-64.4,0-109.6-49.2-109.6-112C3811.1,537.9,3857.9,490.6,3920.1,490.6z"/>
	<path id="XMLID_33_" class="st0" d="M4178.6,494.2h40.1v188.2h95.9v26.1h-126V494.2z"/>
	<path id="XMLID_35_" class="st0" d="M4582.3,646.9h-80.7l-21.3,61.6h-31l77.1-214.4h41.6l77.1,214.4h-31.3L4582.3,646.9z
		 M4541.9,523.7c0,0-4.9,19.4-8.5,30.4l-24,68h65l-23.7-68c-3.6-10.9-8.2-30.4-8.2-30.4h3541.9z"/>
	<path id="XMLID_38_" class="st0" d="M4800.5,494.2h65.6c22.5,0,31.9,1.8,40.1,4.9c21.9,8.2,36.1,29.8,36.1,58
		c0,27.3-15.2,50.4-38.5,58v0.6c0,0,2.4,2.7,6.4,9.7l45.6,83.2h-34l-45.2-85.3h-45.9v85.3h-30.1V494.2h3800.5z M4873.6,597.1
		c23.4,0,38-14.9,38-38.9c0-15.8-6.1-27-17-33.1c-5.8-3-12.8-4.9-29.4-4.9h-34.6V597h33V597.1z"/>
	<path id="XMLID_41_" class="st0" d="M5128.9,494.2h124.4v26.1h-94.4v67.1h76.8v26.1h-76.8v68.9h99.6v26.1h-129.6V494.2z"/>
</g>
</svg>
