<?xml version="1.0" encoding="utf-8"?>
<!-- Generator: Adobe Illustrator 19.1.0, SVG Export Plug-In . SVG Version: 6.00 Build 0)  -->
<!DOCTYPE svg PUBLIC "-//W3C//DTD SVG 1.1//EN" "http://www.w3.org/Graphics/SVG/1.1/DTD/svg11.dtd">
<svg version="1.1" id="Layer_1" xmlns="http://www.w3.org/2000/svg" xmlns:xlink="http://www.w3.org/1999/xlink" x="0px" y="0px"
	 viewBox="0 0 555 312" style="enable-background:new 0 0 555 312;" xml:space="preserve">
<style type="text/css">
	.st0{fill:#BCC1C6;}
	.st1{fill:#ECEFF1;}
	.st2{fill:#7E8B8C;}
	.st3{fill:#EFC818;}
	.st4{fill:#F2A018;}
	.st5{fill:#BE3D2C;}
	.st6{fill:#E64F3B;}
	.st7{fill:#E58119;}
	.st8{fill:#38495F;}
	.st9{fill:#303F52;}
	.st10{fill:#D15815;}
	.st11{fill:#3A3A3A;}
	.st12{fill:#FFAA00;}
	.st13{fill:#7C7C7C;}
	.st14{fill:#B2B2B2;}
	.st15{fill:#2B2B2B;}
	.st16{fill:#212121;}
	.st17{fill:#FFFFFF;}
	.st18{fill:#2D2D2D;}
	.st19{fill:#BCBCBC;}
	.st20{fill:#5D5D5D;}
	.st21{fill:#327AB9;}
	.st22{fill:#3D91DC;}
	.st23{fill:#94A3A4;}
	.st24{fill:#BE3D2D;}
	.st25{fill:#9B4FB6;}
	.st26{fill:#8F36AD;}
	.st27{fill:#1DBC9A;}
	.st28{fill:#19A084;}
</style>
<g>
	<path class="st0" d="M281.1,305.1l-179.4-20.5c-3.3-0.4-5.7-3.4-5.3-6.7l6.9-60.7c0.4-3.3,3.4-5.7,6.7-5.3l179.4,20.5
		c3.3,0.4,5.7,3.4,5.3,6.7l-6.9,60.7C287.4,303.1,284.4,305.5,281.1,305.1z"/>
	<path class="st1" d="M101.9,283.3c-2.6-0.3-4.5-2.7-4.2-5.3l6.9-60.7c0.3-2.6,2.7-4.5,5.3-4.2l179.4,20.5c2.6,0.3,4.5,2.7,4.2,5.3
		l-6.9,60.7c-0.3,2.6-2.7,4.5-5.3,4.2L101.9,283.3z"/>
	<path class="st2" d="M113.8,223l-7-0.8c-0.6-0.1-1.1-0.6-1-1.3l0.4-3.8c0.1-0.6,0.6-1.1,1.3-1l7,0.8c0.6,0.1,1.1,0.6,1,1.3
		l-0.4,3.8C115,222.7,114.4,223.1,113.8,223z"/>
	<path class="st2" d="M125.3,224.4l-7-0.8c-0.6-0.1-1.1-0.6-1-1.3l0.4-3.8c0.1-0.6,0.6-1.1,1.3-1l7,0.8c0.6,0.1,1.1,0.6,1,1.3
		l-0.4,3.8C126.5,224,126,224.4,125.3,224.4z"/>
	<path class="st2" d="M136.4,225.6l-7-0.8c-0.6-0.1-1.1-0.6-1-1.3l0.4-3.8c0.1-0.6,0.6-1.1,1.3-1l7,0.8c0.6,0.1,1.1,0.6,1,1.3
		l-0.4,3.8C137.6,225.2,137,225.7,136.4,225.6z"/>
	<path class="st2" d="M147.4,226.9l-7-0.8c-0.6-0.1-1.1-0.6-1-1.3l0.4-3.8c0.1-0.6,0.6-1.1,1.3-1l7,0.8c0.6,0.1,1.1,0.6,1,1.3
		l-0.4,3.8C148.6,226.5,148,227,147.4,226.9z"/>
	<path class="st2" d="M158.4,228.1l-7-0.8c-0.6-0.1-1.1-0.6-1-1.3l0.4-3.8c0.1-0.6,0.6-1.1,1.3-1l7,0.8c0.6,0.1,1.1,0.6,1,1.3
		l-0.4,3.8C159.6,227.8,159,228.2,158.4,228.1z"/>
	<path class="st2" d="M169.4,229.4l-7-0.8c-0.6-0.1-1.1-0.6-1-1.3l0.4-3.8c0.1-0.6,0.6-1.1,1.3-1l7,0.8c0.6,0.1,1.1,0.6,1,1.3
		l-0.4,3.8C170.6,229,170,229.5,169.4,229.4z"/>
	<path class="st2" d="M180.4,230.7l-7-0.8c-0.6-0.1-1.1-0.6-1-1.3l0.4-3.8c0.1-0.6,0.6-1.1,1.3-1l7,0.8c0.6,0.1,1.1,0.6,1,1.3
		l-0.4,3.8C181.6,230.3,181,230.7,180.4,230.7z"/>
	<path class="st2" d="M191.4,231.9l-7-0.8c-0.6-0.1-1.1-0.6-1-1.3l0.4-3.8c0.1-0.6,0.6-1.1,1.3-1l7,0.8c0.6,0.1,1.1,0.6,1,1.3
		l-0.4,3.8C192.6,231.5,192,232,191.4,231.9z"/>
	<path class="st2" d="M202.4,233.2l-7-0.8c-0.6-0.1-1.1-0.6-1-1.3l0.4-3.8c0.1-0.6,0.6-1.1,1.3-1l7,0.8c0.6,0.1,1.1,0.6,1,1.3
		l-0.4,3.8C203.6,232.8,203,233.2,202.4,233.2z"/>
	<path class="st2" d="M213.3,234.4l-7-0.8c-0.6-0.1-1.1-0.6-1-1.3l0.4-3.8c0.1-0.6,0.6-1.1,1.3-1l7,0.8c0.6,0.1,1.1,0.6,1,1.3
		l-0.4,3.8C214.5,234,214,234.5,213.3,234.4z"/>
	<path class="st2" d="M224.3,235.7l-7-0.8c-0.6-0.1-1.1-0.6-1-1.3l0.4-3.8c0.1-0.6,0.6-1.1,1.3-1l7,0.8c0.6,0.1,1.1,0.6,1,1.3
		l-0.4,3.8C225.5,235.3,225,235.8,224.3,235.7z"/>
	<path class="st2" d="M235.3,236.9l-7-0.8c-0.6-0.1-1.1-0.6-1-1.3l0.4-3.8c0.1-0.6,0.6-1.1,1.3-1l7,0.8c0.6,0.1,1.1,0.6,1,1.3
		l-0.4,3.8C236.5,236.6,236,237,235.3,236.9z"/>
	<path class="st2" d="M246.3,238.2l-7-0.8c-0.6-0.1-1.1-0.6-1-1.3l0.4-3.8c0.1-0.6,0.6-1.1,1.3-1l7,0.8c0.6,0.1,1.1,0.6,1,1.3
		l-0.4,3.8C247.5,237.8,247,238.3,246.3,238.2z"/>
	<path class="st2" d="M257.3,239.5l-7-0.8c-0.6-0.1-1.1-0.6-1-1.3l0.4-3.8c0.1-0.6,0.6-1.1,1.3-1l7,0.8c0.6,0.1,1.1,0.6,1,1.3
		l-0.4,3.8C258.5,239.1,257.9,239.5,257.3,239.5z"/>
	<path class="st2" d="M268.3,240.7l-7-0.8c-0.6-0.1-1.1-0.6-1-1.3l0.4-3.8c0.1-0.6,0.6-1.1,1.3-1l7,0.8c0.6,0.1,1.1,0.6,1,1.3
		l-0.4,3.8C269.5,240.3,268.9,240.8,268.3,240.7z"/>
	<path class="st2" d="M279.3,242l-7-0.8c-0.6-0.1-1.1-0.6-1-1.3l0.4-3.8c0.1-0.6,0.6-1.1,1.3-1l7,0.8c0.6,0.1,1.1,0.6,1,1.3
		l-0.4,3.8C280.5,241.6,279.9,242,279.3,242z"/>
	<path class="st2" d="M290.3,243.2l-7-0.8c-0.6-0.1-1.1-0.6-1-1.3l0.4-3.8c0.1-0.6,0.6-1.1,1.3-1l7,0.8c0.6,0.1,1.1,0.6,1,1.3
		l-0.4,3.8C291.5,242.8,290.9,243.3,290.3,243.2z"/>
	<path class="st2" d="M112.7,234.6l-6.6-0.8c-1-0.1-1.7-1-1.6-2l0.8-6.6c0.1-1,1-1.7,2-1.6l6.6,0.8c1,0.1,1.7,1,1.6,2l-0.8,6.6
		C114.5,234.1,113.6,234.8,112.7,234.6z"/>
	<path class="st2" d="M124.1,236l-6.6-0.8c-1-0.1-1.7-1-1.6-2l0.8-6.6c0.1-1,1-1.7,2-1.6l6.6,0.8c1,0.1,1.7,1,1.6,2l-0.8,6.6
		C126,235.4,125.1,236.1,124.1,236z"/>
	<path class="st2" d="M135.6,237.3l-6.6-0.8c-1-0.1-1.7-1-1.6-2l0.8-6.6c0.1-1,1-1.7,2-1.6l6.6,0.8c1,0.1,1.7,1,1.6,2l-0.8,6.6
		C137.4,236.7,136.6,237.4,135.6,237.3z"/>
	<path class="st2" d="M147.6,238.6l-6.6-0.8c-1-0.1-1.7-1-1.6-2l0.8-6.6c0.1-1,1-1.7,2-1.6l6.6,0.8c1,0.1,1.7,1,1.6,2l-0.8,6.6
		C149.5,238.1,148.6,238.7,147.6,238.6z"/>
	<path class="st2" d="M159.5,240l-6.6-0.8c-1-0.1-1.7-1-1.6-2l0.8-6.6c0.1-1,1-1.7,2-1.6l6.6,0.8c1,0.1,1.7,1,1.6,2l-0.8,6.6
		C161.4,239.4,160.5,240.1,159.5,240z"/>
	<path class="st2" d="M171.4,241.4l-6.6-0.8c-1-0.1-1.7-1-1.6-2l0.8-6.6c0.1-1,1-1.7,2-1.6l6.6,0.8c1,0.1,1.7,1,1.6,2l-0.8,6.6
		C173.3,240.8,172.4,241.5,171.4,241.4z"/>
	<path class="st2" d="M183.3,242.7l-6.6-0.8c-1-0.1-1.7-1-1.6-2l0.8-6.6c0.1-1,1-1.7,2-1.6l6.6,0.8c1,0.1,1.7,1,1.6,2l-0.8,6.6
		C185.2,242.1,184.3,242.8,183.3,242.7z"/>
	<path class="st2" d="M195.2,244.1l-6.6-0.8c-1-0.1-1.7-1-1.6-2l0.8-6.6c0.1-1,1-1.7,2-1.6l6.6,0.8c1,0.1,1.7,1,1.6,2l-0.8,6.6
		C197.1,243.5,196.2,244.2,195.2,244.1z"/>
	<path class="st2" d="M207.1,245.4l-6.6-0.8c-1-0.1-1.7-1-1.6-2l0.8-6.6c0.1-1,1-1.7,2-1.6l6.6,0.8c1,0.1,1.7,1,1.6,2l-0.8,6.6
		C209,244.9,208.1,245.6,207.1,245.4z"/>
	<path class="st2" d="M219,246.8l-6.6-0.8c-1-0.1-1.7-1-1.6-2l0.8-6.6c0.1-1,1-1.7,2-1.6l6.6,0.8c1,0.1,1.7,1,1.6,2l-0.8,6.6
		C220.9,246.2,220,246.9,219,246.8z"/>
	<path class="st2" d="M230.9,248.2l-6.6-0.8c-1-0.1-1.7-1-1.6-2l0.8-6.6c0.1-1,1-1.7,2-1.6l6.6,0.8c1,0.1,1.7,1,1.6,2l-0.8,6.6
		C232.8,247.6,231.9,248.3,230.9,248.2z"/>
	<path class="st2" d="M242.8,249.5l-6.6-0.8c-1-0.1-1.7-1-1.6-2l0.8-6.6c0.1-1,1-1.7,2-1.6l6.6,0.8c1,0.1,1.7,1,1.6,2l-0.8,6.6
		C244.7,248.9,243.8,249.6,242.8,249.5z"/>
	<path class="st2" d="M254.7,250.9l-6.6-0.8c-1-0.1-1.7-1-1.6-2l0.8-6.6c0.1-1,1-1.7,2-1.6l6.6,0.8c1,0.1,1.7,1,1.6,2l-0.8,6.6
		C256.6,250.3,255.7,251,254.7,250.9z"/>
	<path class="st2" d="M288.3,254.7l-6.6-0.8c-1-0.1-1.7-1-1.6-2l0.8-6.6c0.1-1,1-1.7,2-1.6l6.6,0.8c1,0.1,1.7,1,1.6,2l-0.8,6.6
		C290.2,254.1,289.3,254.8,288.3,254.7z"/>
	<path class="st2" d="M276,253.3l-16-1.8c-1-0.1-1.7-1-1.6-2l0.8-6.6c0.1-1,1-1.7,2-1.6l16,1.8c1,0.1,1.7,1,1.6,2l-0.8,6.6
		C277.8,252.7,276.9,253.4,276,253.3z"/>
	<g>
		<path class="st2" d="M116.2,246.5l-11.9-1.4c-1-0.1-1.7-1-1.6-2l0.8-6.6c0.1-1,1-1.7,2-1.6l11.9,1.4c1,0.1,1.7,1,1.6,2l-0.8,6.6
			C118.1,245.9,117.2,246.6,116.2,246.5z"/>
	</g>
	<g>
		<path class="st2" d="M127.7,247.8l-6.6-0.8c-1-0.1-1.7-1-1.6-2l0.8-6.6c0.1-1,1-1.7,2-1.6l6.6,0.8c1,0.1,1.7,1,1.6,2l-0.8,6.6
			C129.6,247.2,128.7,247.9,127.7,247.8z"/>
	</g>
	<g>
		<path class="st2" d="M139.5,249.2l-6.6-0.8c-1-0.1-1.7-1-1.6-2l0.8-6.6c0.1-1,1-1.7,2-1.6l6.6,0.8c1,0.1,1.7,1,1.6,2l-0.8,6.6
			C141.4,248.6,140.5,249.3,139.5,249.2z"/>
	</g>
	<g>
		<path class="st2" d="M151.3,250.5l-6.6-0.8c-1-0.1-1.7-1-1.6-2l0.8-6.6c0.1-1,1-1.7,2-1.6l6.6,0.8c1,0.1,1.7,1,1.6,2l-0.8,6.6
			C153.1,249.9,152.2,250.6,151.3,250.5z"/>
	</g>
	<g>
		<path class="st2" d="M163.1,251.9l-6.6-0.8c-1-0.1-1.7-1-1.6-2l0.8-6.6c0.1-1,1-1.7,2-1.6l6.6,0.8c1,0.1,1.7,1,1.6,2l-0.8,6.6
			C164.9,251.3,164,252,163.1,251.9z"/>
	</g>
	<g>
		<path class="st2" d="M174.8,253.2l-6.6-0.8c-1-0.1-1.7-1-1.6-2l0.8-6.6c0.1-1,1-1.7,2-1.6l6.6,0.8c1,0.1,1.7,1,1.6,2l-0.8,6.6
			C176.7,252.6,175.8,253.3,174.8,253.2z"/>
	</g>
	<g>
		<path class="st2" d="M186.6,254.6l-6.6-0.8c-1-0.1-1.7-1-1.6-2l0.8-6.6c0.1-1,1-1.7,2-1.6l6.6,0.8c1,0.1,1.7,1,1.6,2l-0.8,6.6
			C188.4,254,187.6,254.7,186.6,254.6z"/>
	</g>
	<g>
		<path class="st2" d="M198.4,255.9l-6.6-0.8c-1-0.1-1.7-1-1.6-2l0.8-6.6c0.1-1,1-1.7,2-1.6l6.6,0.8c1,0.1,1.7,1,1.6,2l-0.8,6.6
			C200.2,255.3,199.3,256,198.4,255.9z"/>
	</g>
	<g>
		<path class="st2" d="M210.1,257.3l-6.6-0.8c-1-0.1-1.7-1-1.6-2l0.8-6.6c0.1-1,1-1.7,2-1.6l6.6,0.8c1,0.1,1.7,1,1.6,2l-0.8,6.6
			C212,256.7,211.1,257.4,210.1,257.3z"/>
	</g>
	<g>
		<path class="st2" d="M221.9,258.6l-6.6-0.8c-1-0.1-1.7-1-1.6-2l0.8-6.6c0.1-1,1-1.7,2-1.6l6.6,0.8c1,0.1,1.7,1,1.6,2l-0.8,6.6
			C223.7,258,222.9,258.7,221.9,258.6z"/>
	</g>
	<g>
		<path class="st2" d="M233.7,259.9l-6.6-0.8c-1-0.1-1.7-1-1.6-2l0.8-6.6c0.1-1,1-1.7,2-1.6l6.6,0.8c1,0.1,1.7,1,1.6,2l-0.8,6.6
			C235.5,259.4,234.6,260.1,233.7,259.9z"/>
	</g>
	<g>
		<path class="st2" d="M245.4,261.3l-6.6-0.8c-1-0.1-1.7-1-1.6-2l0.8-6.6c0.1-1,1-1.7,2-1.6l6.6,0.8c1,0.1,1.7,1,1.6,2l-0.8,6.6
			C247.3,260.7,246.4,261.4,245.4,261.3z"/>
	</g>
	<g>
		<path class="st2" d="M257.2,262.6l-6.6-0.8c-1-0.1-1.7-1-1.6-2l0.8-6.6c0.1-1,1-1.7,2-1.6l6.6,0.8c1,0.1,1.7,1,1.6,2l-0.8,6.6
			C259.1,262.1,258.2,262.7,257.2,262.6z"/>
	</g>
	<g>
		<path class="st2" d="M287.1,266l-6.6-0.8c-1-0.1-1.7-1-1.6-2l0.8-6.6c0.1-1,1-1.7,2-1.6l6.6,0.8c1,0.1,1.7,1,1.6,2l-0.8,6.6
			C288.9,265.5,288,266.2,287.1,266z"/>
	</g>
	<g>
		<path class="st2" d="M274.7,264.6l-11.9-1.4c-1-0.1-1.7-1-1.6-2l0.8-6.6c0.1-1,1-1.7,2-1.6l11.9,1.4c1,0.1,1.7,1,1.6,2l-0.8,6.6
			C276.5,264,275.7,264.7,274.7,264.6z"/>
	</g>
	<g>
		<path class="st2" d="M118.2,258.2l-15-1.7c-1-0.1-1.7-1-1.6-2l0.8-6.6c0.1-1,1-1.7,2-1.6l15,1.7c1,0.1,1.7,1,1.6,2l-0.8,6.6
			C120,257.6,119.1,258.3,118.2,258.2z"/>
	</g>
	<g>
		<path class="st2" d="M129.7,259.5l-6.6-0.8c-1-0.1-1.7-1-1.6-2l0.8-6.6c0.1-1,1-1.7,2-1.6l6.6,0.8c1,0.1,1.7,1,1.6,2l-0.8,6.6
			C131.5,259,130.6,259.7,129.7,259.5z"/>
	</g>
	<g>
		<path class="st2" d="M141.4,260.9l-6.6-0.8c-1-0.1-1.7-1-1.6-2l0.8-6.6c0.1-1,1-1.7,2-1.6l6.6,0.8c1,0.1,1.7,1,1.6,2l-0.8,6.6
			C143.3,260.3,142.4,261,141.4,260.9z"/>
	</g>
	<g>
		<path class="st2" d="M153.2,262.2l-6.6-0.8c-1-0.1-1.7-1-1.6-2l0.8-6.6c0.1-1,1-1.7,2-1.6l6.6,0.8c1,0.1,1.7,1,1.6,2l-0.8,6.6
			C155,261.6,154.2,262.3,153.2,262.2z"/>
	</g>
	<g>
		<path class="st2" d="M165,263.6l-6.6-0.8c-1-0.1-1.7-1-1.6-2l0.8-6.6c0.1-1,1-1.7,2-1.6l6.6,0.8c1,0.1,1.7,1,1.6,2l-0.8,6.6
			C166.8,263,165.9,263.7,165,263.6z"/>
	</g>
	<g>
		<path class="st2" d="M176.7,264.9l-6.6-0.8c-1-0.1-1.7-1-1.6-2l0.8-6.6c0.1-1,1-1.7,2-1.6l6.6,0.8c1,0.1,1.7,1,1.6,2l-0.8,6.6
			C178.6,264.3,177.7,265,176.7,264.9z"/>
	</g>
	<g>
		<path class="st2" d="M188.5,266.3l-6.6-0.8c-1-0.1-1.7-1-1.6-2l0.8-6.6c0.1-1,1-1.7,2-1.6l6.6,0.8c1,0.1,1.7,1,1.6,2l-0.8,6.6
			C190.4,265.7,189.5,266.4,188.5,266.3z"/>
	</g>
	<g>
		<path class="st2" d="M200.3,267.6l-6.6-0.8c-1-0.1-1.7-1-1.6-2l0.8-6.6c0.1-1,1-1.7,2-1.6l6.6,0.8c1,0.1,1.7,1,1.6,2l-0.8,6.6
			C202.1,267,201.3,267.7,200.3,267.6z"/>
	</g>
	<g>
		<path class="st2" d="M212.1,269l-6.6-0.8c-1-0.1-1.7-1-1.6-2l0.8-6.6c0.1-1,1-1.7,2-1.6l6.6,0.8c1,0.1,1.7,1,1.6,2l-0.8,6.6
			C213.9,268.4,213,269.1,212.1,269z"/>
	</g>
	<g>
		<path class="st2" d="M223.8,270.3l-6.6-0.8c-1-0.1-1.7-1-1.6-2l0.8-6.6c0.1-1,1-1.7,2-1.6l6.6,0.8c1,0.1,1.7,1,1.6,2l-0.8,6.6
			C225.7,269.7,224.8,270.4,223.8,270.3z"/>
	</g>
	<g>
		<path class="st2" d="M235.6,271.7l-6.6-0.8c-1-0.1-1.7-1-1.6-2l0.8-6.6c0.1-1,1-1.7,2-1.6l6.6,0.8c1,0.1,1.7,1,1.6,2l-0.8,6.6
			C237.4,271.1,236.6,271.8,235.6,271.7z"/>
	</g>
	<g>
		<path class="st2" d="M247.4,273l-6.6-0.8c-1-0.1-1.7-1-1.6-2l0.8-6.6c0.1-1,1-1.7,2-1.6l6.6,0.8c1,0.1,1.7,1,1.6,2l-0.8,6.6
			C249.2,272.4,248.3,273.1,247.4,273z"/>
	</g>
	<g>
		<path class="st2" d="M285.8,277.4l-6.6-0.8c-1-0.1-1.7-1-1.6-2l0.8-6.6c0.1-1,1-1.7,2-1.6l6.6,0.8c1,0.1,1.7,1,1.6,2l-0.8,6.6
			C287.6,276.8,286.7,277.5,285.8,277.4z"/>
	</g>
	<g>
		<path class="st2" d="M273.4,276l-21.3-2.4c-1-0.1-1.7-1-1.6-2l0.8-6.6c0.1-1,1-1.7,2-1.6l21.3,2.4c1,0.1,1.7,1,1.6,2l-0.8,6.6
			C275.2,275.4,274.4,276.1,273.4,276z"/>
	</g>
	<g>
		<path class="st2" d="M122.4,270.3l-20.7-2.4c-1-0.1-1.7-1-1.6-2l0.8-6.6c0.1-1,1-1.7,2-1.6l20.7,2.4c1,0.1,1.7,1,1.6,2l-0.8,6.6
			C124.2,269.7,123.3,270.4,122.4,270.3z"/>
	</g>
	<g>
		<path class="st2" d="M133.9,271.6l-6.6-0.8c-1-0.1-1.7-1-1.6-2l0.8-6.6c0.1-1,1-1.7,2-1.6l6.6,0.8c1,0.1,1.7,1,1.6,2l-0.8,6.6
			C135.7,271,134.8,271.7,133.9,271.6z"/>
	</g>
	<g>
		<path class="st2" d="M145.6,273l-6.6-0.8c-1-0.1-1.7-1-1.6-2l0.8-6.6c0.1-1,1-1.7,2-1.6l6.6,0.8c1,0.1,1.7,1,1.6,2l-0.8,6.6
			C147.5,272.4,146.6,273.1,145.6,273z"/>
	</g>
	<g>
		<path class="st2" d="M157.4,274.3l-6.6-0.8c-1-0.1-1.7-1-1.6-2l0.8-6.6c0.1-1,1-1.7,2-1.6l6.6,0.8c1,0.1,1.7,1,1.6,2l-0.8,6.6
			C159.3,273.7,158.4,274.4,157.4,274.3z"/>
	</g>
	<g>
		<path class="st2" d="M169.2,275.6l-6.6-0.8c-1-0.1-1.7-1-1.6-2l0.8-6.6c0.1-1,1-1.7,2-1.6l6.6,0.8c1,0.1,1.7,1,1.6,2l-0.8,6.6
			C171,275.1,170.1,275.8,169.2,275.6z"/>
	</g>
	<g>
		<path class="st2" d="M180.9,277l-6.6-0.8c-1-0.1-1.7-1-1.6-2l0.8-6.6c0.1-1,1-1.7,2-1.6l6.6,0.8c1,0.1,1.7,1,1.6,2l-0.8,6.6
			C182.8,276.4,181.9,277.1,180.9,277z"/>
	</g>
	<g>
		<path class="st2" d="M192.7,278.3l-6.6-0.8c-1-0.1-1.7-1-1.6-2l0.8-6.6c0.1-1,1-1.7,2-1.6l6.6,0.8c1,0.1,1.7,1,1.6,2l-0.8,6.6
			C194.6,277.8,193.7,278.4,192.7,278.3z"/>
	</g>
	<g>
		<path class="st2" d="M204.5,279.7l-6.6-0.8c-1-0.1-1.7-1-1.6-2l0.8-6.6c0.1-1,1-1.7,2-1.6l6.6,0.8c1,0.1,1.7,1,1.6,2l-0.8,6.6
			C206.3,279.1,205.5,279.8,204.5,279.7z"/>
	</g>
	<g>
		<path class="st2" d="M216.3,281l-6.6-0.8c-1-0.1-1.7-1-1.6-2l0.8-6.6c0.1-1,1-1.7,2-1.6l6.6,0.8c1,0.1,1.7,1,1.6,2l-0.8,6.6
			C218.1,280.4,217.2,281.1,216.3,281z"/>
	</g>
	<g>
		<path class="st2" d="M228,282.4l-6.6-0.8c-1-0.1-1.7-1-1.6-2l0.8-6.6c0.1-1,1-1.7,2-1.6l6.6,0.8c1,0.1,1.7,1,1.6,2l-0.8,6.6
			C229.9,281.8,229,282.5,228,282.4z"/>
	</g>
	<g>
		<path class="st2" d="M239.8,283.7l-6.6-0.8c-1-0.1-1.7-1-1.6-2l0.8-6.6c0.1-1,1-1.7,2-1.6l6.6,0.8c1,0.1,1.7,1,1.6,2l-0.8,6.6
			C241.6,283.1,240.8,283.8,239.8,283.7z"/>
	</g>
	<g>
		<path class="st2" d="M284.4,288.8l-6.6-0.8c-1-0.1-1.7-1-1.6-2l0.8-6.6c0.1-1,1-1.7,2-1.6l6.6,0.8c1,0.1,1.7,1,1.6,2l-0.8,6.6
			C286.3,288.2,285.4,288.9,284.4,288.8z"/>
	</g>
	<g>
		<path class="st2" d="M272.1,287.4l-26.9-3.1c-1-0.1-1.7-1-1.6-2l0.8-6.6c0.1-1,1-1.7,2-1.6l26.9,3.1c1,0.1,1.7,1,1.6,2l-0.8,6.6
			C273.9,286.8,273.1,287.5,272.1,287.4z"/>
	</g>
	<g>
		<path class="st2" d="M107,280.4l-6.6-0.8c-1-0.1-1.7-1-1.6-2l0.8-6.6c0.1-1,1-1.7,2-1.6l6.6,0.8c1,0.1,1.7,1,1.6,2l-0.8,6.6
			C108.8,279.8,108,280.5,107,280.4z"/>
	</g>
	<g>
		<path class="st2" d="M118.8,281.8l-6.6-0.8c-1-0.1-1.7-1-1.6-2l0.8-6.6c0.1-1,1-1.7,2-1.6l6.6,0.8c1,0.1,1.7,1,1.6,2l-0.8,6.6
			C120.6,281.2,119.7,281.9,118.8,281.8z"/>
	</g>
	<g>
		<path class="st2" d="M130.5,283.1l-6.6-0.8c-1-0.1-1.7-1-1.6-2l0.8-6.6c0.1-1,1-1.7,2-1.6l6.6,0.8c1,0.1,1.7,1,1.6,2l-0.8,6.6
			C132.4,282.5,131.5,283.2,130.5,283.1z"/>
	</g>
	<g>
		<path class="st2" d="M142.3,284.5l-6.6-0.8c-1-0.1-1.7-1-1.6-2l0.8-6.6c0.1-1,1-1.7,2-1.6l6.6,0.8c1,0.1,1.7,1,1.6,2l-0.8,6.6
			C144.1,283.9,143.3,284.6,142.3,284.5z"/>
	</g>
	<g>
		<path class="st2" d="M201.8,291.3l-54.3-6.2c-1-0.1-1.7-1-1.6-2l0.8-6.6c0.1-1,1-1.7,2-1.6l54.3,6.2c1,0.1,1.7,1,1.6,2l-0.8,6.6
			C203.6,290.7,202.7,291.4,201.8,291.3z"/>
	</g>
	<g>
		<path class="st2" d="M212.9,292.5l-6.6-0.8c-1-0.1-1.7-1-1.6-2l0.8-6.6c0.1-1,1-1.7,2-1.6l6.6,0.8c1,0.1,1.7,1,1.6,2l-0.8,6.6
			C214.8,292,213.9,292.7,212.9,292.5z"/>
	</g>
	<g>
		<path class="st2" d="M224.3,293.8l-6.6-0.8c-1-0.1-1.7-1-1.6-2l0.8-6.6c0.1-1,1-1.7,2-1.6l6.6,0.8c1,0.1,1.7,1,1.6,2l-0.8,6.6
			C226.1,293.3,225.3,294,224.3,293.8z"/>
	</g>
	<g>
		<path class="st2" d="M235.7,295.1l-6.6-0.8c-1-0.1-1.7-1-1.6-2l0.8-6.6c0.1-1,1-1.7,2-1.6l6.6,0.8c1,0.1,1.7,1,1.6,2l-0.8,6.6
			C237.5,294.6,236.6,295.3,235.7,295.1z"/>
	</g>
	<g>
		<path class="st2" d="M253.6,297.2l-6.6-0.8c-1-0.1-1.7-1-1.6-2l0.1-0.7c0.1-1,1-1.7,2-1.6l6.6,0.8c1,0.1,1.7,1,1.6,2l-0.1,0.7
			C255.4,296.6,254.6,297.3,253.6,297.2z"/>
	</g>
	<g>
		<path class="st2" d="M265.1,298.5l-6.6-0.8c-1-0.1-1.7-1-1.6-2l0.1-0.7c0.1-1,1-1.7,2-1.6l6.6,0.8c1,0.1,1.7,1,1.6,2l-0.1,0.7
			C267,297.9,266.1,298.6,265.1,298.5z"/>
	</g>
	<g>
		<path class="st2" d="M265.8,293.1l-6.6-0.8c-1-0.1-1.7-1-1.6-2l0.1-0.7c0.1-1,1-1.7,2-1.6l6.6,0.8c1,0.1,1.7,1,1.6,2l-0.1,0.7
			C267.6,292.6,266.7,293.2,265.8,293.1z"/>
	</g>
	<g>
		<path class="st2" d="M276.7,299.8l-6.6-0.8c-1-0.1-1.7-1-1.6-2l0.1-0.7c0.1-1,1-1.7,2-1.6l6.6,0.8c1,0.1,1.7,1,1.6,2l-0.1,0.7
			C278.5,299.3,277.6,299.9,276.7,299.8z"/>
	</g>
	
		<rect x="395.5" y="207.3" transform="matrix(0.7998 0.6002 -0.6002 0.7998 224.7111 -189.634)" class="st3" width="2.3" height="69.6"/>
	
		<rect x="397.4" y="208.7" transform="matrix(-0.7999 -0.6002 0.6002 -0.7999 571.1372 677.4095)" class="st4" width="2.3" height="69.6"/>
	
		<rect x="419.7" y="211.2" transform="matrix(-0.7999 -0.6002 0.6002 -0.7999 629.2573 637.2047)" class="st0" width="2.3" height="4.9"/>
	
		<rect x="417.9" y="209.9" transform="matrix(0.7998 0.6002 -0.6002 0.7998 211.3041 -209.0154)" class="st1" width="2.3" height="4.9"/>
	<path class="st5" d="M425.7,205.3l-4.3,5.8l1.8,1.4l3.4-4.6c0.5-0.6,0.5-1.4,0.1-1.8L425.7,205.3z"/>
	<path class="st6" d="M425.7,205.3l-1.1-0.8c-0.4-0.3-1.2-0.1-1.7,0.6l-3.4,4.6l1.8,1.4L425.7,205.3z"/>
	<polygon class="st7" points="376.7,270.6 374.9,269.2 372.4,274.9 373.1,275.4 	"/>
	<polygon class="st8" points="373.1,275.4 372.4,274.9 370.9,278.3 	"/>
	<polygon class="st9" points="370.9,278.3 373.8,275.9 373.1,275.4 	"/>
	<polygon class="st10" points="373.8,275.9 378.5,272 376.7,270.6 373.1,275.4 	"/>
	<g>
		<path class="st9" d="M398.5,18.1c0-6.2-5.9-11.2-13.1-11.2H159.5c-7.2,0-13.1,5-13.1,11.2v121.3h252.1V18.1z"/>
		<path class="st1" d="M146.4,139.4v15.7c0,6.2,5.9,11.2,13.1,11.2h225.9c7.2,0,13.1-5,13.1-11.2v-15.7H146.4z"/>
	</g>
	<g>
		<polygon class="st1" points="157.9,130.4 387.6,130.4 387.6,17.6 337.9,17.6 		"/>
		<polygon class="st1" points="157.3,17.6 157.3,130.4 157.9,130.4 337.9,17.6 		"/>
	</g>
	<g>
		<polygon class="st1" points="250.7,171.1 236.8,199.1 308.1,199.1 294.2,171.1 		"/>
		<polygon class="st0" points="291.8,166.3 253.1,166.3 250.7,171.1 294.2,171.1 		"/>
	</g>
	<g>
		<path class="st0" d="M316.6,199.1h-88.3c-1,0-2.1,0.3-3.3,0.8h95C318.7,199.4,317.6,199.1,316.6,199.1z"/>
		<path class="st1" d="M324.3,202.7c-1.2-1.2-2.8-2.2-4.4-2.8h-95c-1.6,0.6-3.2,1.6-4.4,2.8l-0.1,0.1L324.3,202.7L324.3,202.7z"/>
		<polygon class="st0" points="220.5,202.8 216.8,206.4 328.1,206.4 324.4,202.8 		"/>
	</g>
	<rect x="157.3" y="17.6" class="st11" width="230.4" height="112.8"/>
	<rect x="159.3" y="19.6" class="st12" width="3.8" height="3.8"/>
	<rect x="159.3" y="26.5" class="st13" width="3.8" height="3.8"/>
	<rect x="164.3" y="26.5" class="st13" width="3.8" height="3.8"/>
	<rect x="159.3" y="31.3" class="st13" width="3.8" height="3.8"/>
	<rect x="164.3" y="31.3" class="st13" width="3.8" height="3.8"/>
	<rect x="159.3" y="36.1" class="st13" width="3.8" height="3.8"/>
	<rect x="164.3" y="36.1" class="st13" width="3.8" height="3.8"/>
	<rect x="159.3" y="40.9" class="st13" width="3.8" height="3.8"/>
	<rect x="164.3" y="40.9" class="st13" width="3.8" height="3.8"/>
	<rect x="159.3" y="45.7" class="st13" width="3.8" height="3.8"/>
	<rect x="164.3" y="45.7" class="st13" width="3.8" height="3.8"/>
	<rect x="159.3" y="50.5" class="st13" width="3.8" height="3.8"/>
	<rect x="164.3" y="50.5" class="st13" width="3.8" height="3.8"/>
	<rect x="159.3" y="55.3" class="st13" width="3.8" height="3.8"/>
	<rect x="164.3" y="55.3" class="st13" width="3.8" height="3.8"/>
	<rect x="159.3" y="60.1" class="st13" width="3.8" height="3.8"/>
	<rect x="164.3" y="60.1" class="st13" width="3.8" height="3.8"/>
	<rect x="159.3" y="64.9" class="st13" width="3.8" height="3.8"/>
	<rect x="164.3" y="64.9" class="st13" width="3.8" height="3.8"/>
	<rect x="159.3" y="69.7" class="st13" width="3.8" height="3.8"/>
	<rect x="164.3" y="69.7" class="st13" width="3.8" height="3.8"/>
	<rect x="382.7" y="76.7" class="st13" width="3.8" height="3.8"/>
	<rect x="382.7" y="28.9" class="st13" width="3.8" height="3.8"/>
	<rect x="382.7" y="81.4" class="st13" width="3.8" height="3.8"/>
	<rect x="382.7" y="33.6" class="st13" width="3.8" height="3.8"/>
	<rect x="382.7" y="86.2" class="st13" width="3.8" height="3.8"/>
	<rect x="382.7" y="38.4" class="st13" width="3.8" height="3.8"/>
	<rect x="382.7" y="91" class="st13" width="3.8" height="3.8"/>
	<rect x="382.7" y="43.2" class="st13" width="3.8" height="3.8"/>
	<rect x="382.7" y="95.8" class="st13" width="3.8" height="3.8"/>
	<rect x="382.7" y="48" class="st13" width="3.8" height="3.8"/>
	<rect x="382.7" y="100.6" class="st13" width="3.8" height="3.8"/>
	<rect x="382.7" y="52.8" class="st13" width="3.8" height="3.8"/>
	<rect x="382.7" y="105.4" class="st13" width="3.8" height="3.8"/>
	<rect x="382.7" y="57.6" class="st13" width="3.8" height="3.8"/>
	<rect x="382.7" y="110.2" class="st13" width="3.8" height="3.8"/>
	<rect x="382.7" y="62.4" class="st13" width="3.8" height="3.8"/>
	<rect x="382.7" y="115" class="st13" width="3.8" height="3.8"/>
	<rect x="382.7" y="67.2" class="st13" width="3.8" height="3.8"/>
	<rect x="382.7" y="119.8" class="st13" width="3.8" height="3.8"/>
	<rect x="382.7" y="72" class="st13" width="3.8" height="3.8"/>
	<rect x="165.4" y="19.6" class="st13" width="7.3" height="3.8"/>
	<rect x="174.4" y="19.6" class="st13" width="7.3" height="3.8"/>
	<rect x="183.4" y="19.6" class="st13" width="7.3" height="3.8"/>
	<rect x="192.4" y="19.6" class="st13" width="7.3" height="3.8"/>
	<rect x="201.4" y="19.6" class="st13" width="7.3" height="3.8"/>
	<rect x="210.4" y="19.6" class="st13" width="7.3" height="3.8"/>
	<rect x="219.4" y="19.6" class="st13" width="7.3" height="3.8"/>
	<rect x="228.4" y="19.6" class="st13" width="7.3" height="3.8"/>
	<rect x="237.4" y="19.6" class="st13" width="7.3" height="3.8"/>
	<rect x="356.7" y="19.6" class="st14" width="16.4" height="3.8"/>
	<rect x="382.8" y="18" class="st15" width="3" height="3"/>
	<rect x="379" y="18" class="st15" width="3" height="3"/>
	<rect x="375.2" y="18" class="st15" width="3" height="3"/>
	<path class="st15" d="M357.4,23l0.7-0.7l-0.1-0.1l0.2-0.2c0.4,0.3,1,0.3,1.4-0.1c0.4-0.4,0.4-1.1,0-1.5c-0.4-0.4-1.1-0.4-1.5,0
		c-0.4,0.4-0.4,1-0.1,1.4l-0.2,0.2l-0.1-0.1l-0.7,0.7c-0.1,0.1-0.1,0.3,0,0.4l0,0C357.1,23.1,357.3,23.1,357.4,23z M358.2,20.5
		c0.4-0.4,0.9-0.4,1.3,0c0.4,0.4,0.4,0.9,0,1.3c-0.4,0.4-0.9,0.4-1.3,0C357.9,21.4,357.9,20.8,358.2,20.5z"/>
	<rect x="159.3" y="74.4" class="st13" width="2.4" height="2.4"/>
	<rect x="162.5" y="74.4" class="st13" width="2.4" height="2.4"/>
	<rect x="165.7" y="74.4" class="st13" width="2.4" height="2.4"/>
	<rect x="194.5" y="24.1" class="st16" width="193.2" height="3.8"/>
	<rect x="169.1" y="24.1" class="st13" width="25.4" height="3.8"/>
	
		<rect x="192.6" y="25.2" transform="matrix(0.7071 0.7071 -0.7071 0.7071 74.8633 -128.6398)" class="st17" width="0.3" height="1.8"/>
	
		<rect x="192.6" y="25.2" transform="matrix(-0.7071 0.7071 -0.7071 -0.7071 347.4014 -91.8023)" class="st17" width="0.3" height="1.8"/>
	<rect x="169.1" y="28" class="st16" width="212.7" height="3.8"/>
	<rect x="174.2" y="28" class="st17" width="0.2" height="3.8"/>
	<rect x="178.9" y="29.9" class="st17" width="0.1" height="1.9"/>
	<rect x="183.5" y="29.9" class="st17" width="0.1" height="1.9"/>
	<rect x="188.1" y="29.9" class="st17" width="0.1" height="1.9"/>
	<rect x="192.7" y="29.9" class="st17" width="0.1" height="1.9"/>
	<rect x="197.4" y="29.9" class="st17" width="0.1" height="1.9"/>
	<rect x="202" y="29.9" class="st17" width="0.1" height="1.9"/>
	<rect x="206.6" y="29.9" class="st17" width="0.1" height="1.9"/>
	<rect x="211.2" y="29.9" class="st17" width="0.1" height="1.9"/>
	<rect x="215.8" y="29.9" class="st17" width="0.1" height="1.9"/>
	<rect x="220.4" y="29.9" class="st17" width="0.1" height="1.9"/>
	<rect x="225" y="29.9" class="st17" width="0.1" height="1.9"/>
	<rect x="229.7" y="29.9" class="st17" width="0.1" height="1.9"/>
	<rect x="234.3" y="29.9" class="st17" width="0.1" height="1.9"/>
	<rect x="238.9" y="29.9" class="st17" width="0.1" height="1.9"/>
	<rect x="243.5" y="29.9" class="st17" width="0.1" height="1.9"/>
	<rect x="248.1" y="29.9" class="st17" width="0.1" height="1.9"/>
	<rect x="252.7" y="29.9" class="st17" width="0.1" height="1.9"/>
	<rect x="257.4" y="29.9" class="st17" width="0.1" height="1.9"/>
	<rect x="262" y="29.9" class="st17" width="0.1" height="1.9"/>
	<rect x="266.6" y="29.9" class="st17" width="0.1" height="1.9"/>
	<rect x="271.2" y="29.9" class="st17" width="0.1" height="1.9"/>
	<rect x="275.8" y="29.9" class="st17" width="0.1" height="1.9"/>
	<rect x="280.4" y="29.9" class="st17" width="0.1" height="1.9"/>
	<rect x="285.1" y="29.9" class="st17" width="0.1" height="1.9"/>
	<rect x="289.7" y="29.9" class="st17" width="0.1" height="1.9"/>
	<rect x="294.3" y="29.9" class="st17" width="0.1" height="1.9"/>
	<rect x="298.9" y="29.9" class="st17" width="0.1" height="1.9"/>
	<rect x="303.5" y="29.9" class="st17" width="0.1" height="1.9"/>
	<rect x="308.1" y="29.9" class="st17" width="0.1" height="1.9"/>
	<rect x="312.8" y="29.9" class="st17" width="0.1" height="1.9"/>
	<rect x="317.4" y="29.9" class="st17" width="0.1" height="1.9"/>
	<rect x="322" y="29.9" class="st17" width="0.1" height="1.9"/>
	<rect x="326.6" y="29.9" class="st17" width="0.1" height="1.9"/>
	<rect x="331.2" y="29.9" class="st17" width="0.1" height="1.9"/>
	<rect x="335.8" y="29.9" class="st17" width="0.1" height="1.9"/>
	<rect x="340.5" y="29.9" class="st17" width="0.1" height="1.9"/>
	<rect x="345.1" y="29.9" class="st17" width="0.1" height="1.9"/>
	<rect x="349.7" y="29.9" class="st17" width="0.1" height="1.9"/>
	<rect x="354.3" y="29.9" class="st17" width="0.1" height="1.9"/>
	<rect x="358.9" y="29.9" class="st17" width="0.1" height="1.9"/>
	<rect x="363.5" y="29.9" class="st17" width="0.1" height="1.9"/>
	<rect x="368.2" y="29.9" class="st17" width="0.1" height="1.9"/>
	<rect x="372.8" y="29.9" class="st17" width="0.1" height="1.9"/>
	<rect x="377.4" y="29.9" class="st17" width="0.1" height="1.9"/>
	<rect x="197.3" y="28" class="st17" width="0.2" height="3.8"/>
	<rect x="220.4" y="28" class="st17" width="0.2" height="3.8"/>
	<rect x="243.5" y="28" class="st17" width="0.2" height="3.8"/>
	<rect x="266.5" y="28" class="st17" width="0.2" height="3.8"/>
	<rect x="289.6" y="28" class="st17" width="0.2" height="3.8"/>
	<rect x="312.7" y="28" class="st17" width="0.2" height="3.8"/>
	<rect x="335.8" y="28" class="st17" width="0.2" height="3.8"/>
	<rect x="358.9" y="28" class="st17" width="0.2" height="3.8"/>
	<rect x="169.1" y="28" class="st16" width="3.8" height="101.7"/>
	<rect x="169.1" y="33.1" class="st17" width="3.8" height="0.2"/>
	<rect x="171" y="37.8" class="st17" width="1.9" height="0.1"/>
	<rect x="171" y="42.4" class="st17" width="1.9" height="0.1"/>
	<rect x="171" y="47" class="st17" width="1.9" height="0.1"/>
	<rect x="171" y="51.6" class="st17" width="1.9" height="0.1"/>
	<rect x="171" y="56.3" class="st17" width="1.9" height="0.1"/>
	<rect x="171" y="60.9" class="st17" width="1.9" height="0.1"/>
	<rect x="171" y="65.5" class="st17" width="1.9" height="0.1"/>
	<rect x="171" y="70.1" class="st17" width="1.9" height="0.1"/>
	<rect x="171" y="74.7" class="st17" width="1.9" height="0.1"/>
	<rect x="171" y="79.3" class="st17" width="1.9" height="0.1"/>
	<rect x="171" y="84" class="st17" width="1.9" height="0.1"/>
	<rect x="171" y="88.6" class="st17" width="1.9" height="0.1"/>
	<rect x="171" y="93.2" class="st17" width="1.9" height="0.1"/>
	<rect x="171" y="97.8" class="st17" width="1.9" height="0.1"/>
	<rect x="171" y="102.4" class="st17" width="1.9" height="0.1"/>
	<rect x="171" y="107" class="st17" width="1.9" height="0.1"/>
	<rect x="171" y="111.7" class="st17" width="1.9" height="0.1"/>
	<rect x="171" y="116.3" class="st17" width="1.9" height="0.1"/>
	<rect x="171" y="120.9" class="st17" width="1.9" height="0.1"/>
	<rect x="171" y="125.5" class="st17" width="1.9" height="0.1"/>
	<rect x="169.1" y="56.2" class="st17" width="3.8" height="0.2"/>
	<rect x="169.1" y="79.3" class="st17" width="3.8" height="0.2"/>
	<rect x="169.1" y="102.4" class="st17" width="3.8" height="0.2"/>
	<rect x="169.1" y="125.5" class="st17" width="3.8" height="0.2"/>
	<rect x="169.1" y="127.5" class="st18" width="213.4" height="3.3"/>
	<rect x="379.2" y="28" class="st18" width="3.3" height="102.7"/>
	<rect x="380" y="73.5" class="st19" width="1.6" height="4.6"/>
	<rect x="273.5" y="128.3" class="st19" width="4.6" height="1.6"/>
	<rect x="172.9" y="31.8" class="st20" width="206.3" height="95.6"/>
	<rect x="229.2" y="36.9" class="st17" width="86.5" height="86.5"/>
	<path class="st16" d="M315.7,36.9v86.5h-86.5V36.9H315.7 M316.2,36.5h-0.5h-86.5h-0.5v0.5v86.5v0.5h0.5h86.5h0.5v-0.5V36.9V36.5
		L316.2,36.5z"/>
	<path class="st9" d="M304.5,95.6h-2.8c0-17-13.8-30.8-30.8-30.8c-17,0-30.8,13.8-30.8,30.8h-2.8C237.4,77,252.4,62,271,62
		C289.5,62,304.5,77,304.5,95.6z"/>
	<rect x="235.5" y="92.3" class="st21" width="6.5" height="6.5"/>
	<rect x="300" y="92.3" class="st21" width="6.5" height="6.5"/>
	<rect x="271" y="62.8" class="st22" width="39.1" height="1"/>
	<rect x="231.8" y="62.8" class="st22" width="39.1" height="1"/>
	<circle class="st21" cx="310.1" cy="63.4" r="2"/>
	<rect x="267.7" y="60.1" class="st21" width="6.5" height="6.5"/>
	<circle class="st21" cx="231.8" cy="63.4" r="2"/>
	<polygon class="st4" points="306.8,89 270.1,62.9 269.5,107.9 281.5,95.7 290.4,113.4 298.8,109.2 289.9,91.5 	"/>
	<path class="st23" d="M314.8,264.1c0.2,2.8,0.7,5.8,1.7,8.9c3.9,11.8,13,19.4,20.3,16.9l-8.5-25.8
		C323.7,265.6,319,265.5,314.8,264.1z"/>
	<path class="st2" d="M336.8,289.9c7.3-2.4,10.1-13.9,6.2-25.7c-1-3-2.3-5.8-3.9-8.1c-2.6,3.7-6.3,6.5-10.8,8.1L336.8,289.9z"/>
	<path class="st0" d="M322.7,247.3l5.6,16.9c4.6-1.5,8.3-4.4,10.8-8.1C334.5,249.2,328.1,245.4,322.7,247.3z"/>
	<path class="st1" d="M322.7,247.3c-5.4,1.8-8.4,8.6-7.9,16.9c4.2,1.4,8.9,1.5,13.5,0L322.7,247.3z"/>
	
		<ellipse transform="matrix(0.9493 -0.3145 0.3145 0.9493 -63.1299 114.9233)" class="st9" cx="324.6" cy="253.1" rx="0.9" ry="4.4"/>
	<path class="st6" d="M377.8,289.5l16.9,12.7l64-85.2l-16.9-12.7L377.8,289.5z M391.9,294.5c-0.8,1.1-2.4,1.3-3.4,0.5
		c-1.1-0.8-1.3-2.4-0.5-3.4c0.8-1.1,2.4-1.3,3.4-0.5C392.5,291.9,392.7,293.4,391.9,294.5z"/>
	
		<rect x="380.1" y="288" transform="matrix(0.6002 -0.7998 0.7998 0.6002 -80.7499 420.6772)" class="st9" width="0.7" height="6.2"/>
	
		<rect x="378.9" y="288.7" transform="matrix(0.6002 -0.7999 0.7999 0.6002 -80.4561 419.1826)" class="st9" width="0.3" height="2.7"/>
	
		<rect x="381.3" y="285.5" transform="matrix(0.6005 -0.7997 0.7997 0.6005 -76.9836 419.6509)" class="st9" width="0.3" height="2.7"/>
	
		<rect x="383.7" y="282.3" transform="matrix(0.6005 -0.7997 0.7997 0.6005 -73.4623 420.293)" class="st9" width="0.3" height="2.7"/>
	
		<rect x="386.1" y="279.1" transform="matrix(0.6002 -0.7998 0.7998 0.6002 -69.8979 421.0752)" class="st9" width="0.3" height="2.7"/>
	
		<rect x="388.5" y="275.9" transform="matrix(0.6002 -0.7999 0.7999 0.6002 -66.365 421.7496)" class="st9" width="0.3" height="2.7"/>
	
		<rect x="390.9" y="272.7" transform="matrix(0.6002 -0.7999 0.7999 0.6002 -62.8422 422.3913)" class="st9" width="0.3" height="2.7"/>
	
		<rect x="393.3" y="269.5" transform="matrix(0.5999 -0.8001 0.8001 0.5999 -59.2762 423.1616)" class="st9" width="0.3" height="2.7"/>
	
		<rect x="395.7" y="266.3" transform="matrix(0.6002 -0.7999 0.7999 0.6002 -55.7966 423.6748)" class="st9" width="0.3" height="2.7"/>
	
		<rect x="398.1" y="263.1" transform="matrix(0.6005 -0.7997 0.7997 0.6005 -52.3343 424.146)" class="st9" width="0.3" height="2.7"/>
	
		<rect x="400.5" y="259.9" transform="matrix(0.6002 -0.7999 0.7999 0.6002 -48.7511 424.9583)" class="st9" width="0.3" height="2.7"/>
	
		<rect x="402.9" y="256.7" transform="matrix(0.6002 -0.7998 0.7998 0.6002 -45.2405 425.5674)" class="st9" width="0.3" height="2.7"/>
	
		<rect x="405.3" y="253.5" transform="matrix(0.6002 -0.7999 0.7999 0.6002 -41.7055 426.2418)" class="st9" width="0.3" height="2.7"/>
	
		<rect x="407.7" y="250.3" transform="matrix(0.6002 -0.7999 0.7999 0.6002 -38.1827 426.8834)" class="st9" width="0.3" height="2.7"/>
	
		<rect x="410.2" y="247.1" transform="matrix(0.6002 -0.7999 0.7999 0.6002 -34.66 427.5252)" class="st9" width="0.3" height="2.7"/>
	
		<rect x="412.6" y="243.9" transform="matrix(0.6005 -0.7997 0.7997 0.6005 -31.2064 427.999)" class="st9" width="0.3" height="2.7"/>
	
		<rect x="415" y="240.7" transform="matrix(0.6002 -0.7999 0.7999 0.6002 -27.6144 428.8087)" class="st9" width="0.3" height="2.7"/>
	
		<rect x="417.4" y="237.5" transform="matrix(0.6002 -0.7999 0.7999 0.6002 -24.0916 429.4504)" class="st9" width="0.3" height="2.7"/>
	
		<rect x="419.8" y="234.3" transform="matrix(0.6002 -0.7998 0.7998 0.6002 -20.5832 430.0596)" class="st9" width="0.3" height="2.7"/>
	
		<rect x="422.2" y="231" transform="matrix(0.6002 -0.7999 0.7999 0.6002 -17.0461 430.7339)" class="st9" width="0.3" height="2.7"/>
	
		<rect x="424.6" y="227.8" transform="matrix(0.5999 -0.8001 0.8001 0.5999 -13.4658 431.5)" class="st9" width="0.3" height="2.7"/>
	
		<rect x="427" y="224.6" transform="matrix(0.6004 -0.7997 0.7997 0.6004 -10.0631 431.8845)" class="st9" width="0.3" height="2.7"/>
	
		<rect x="429.4" y="221.4" transform="matrix(0.6005 -0.7997 0.7997 0.6005 -6.5571 432.4941)" class="st9" width="0.3" height="2.7"/>
	
		<rect x="431.8" y="218.2" transform="matrix(0.6002 -0.7999 0.7999 0.6002 -2.9549 433.3008)" class="st9" width="0.3" height="2.7"/>
	<rect x="434.2" y="215" transform="matrix(0.6002 -0.7999 0.7999 0.6002 0.5679 433.9426)" class="st9" width="0.3" height="2.7"/>
	
		<rect x="436.6" y="211.8" transform="matrix(0.6002 -0.7998 0.7998 0.6002 4.074 434.5518)" class="st9" width="0.3" height="2.7"/>
	<rect x="439" y="208.6" transform="matrix(0.6002 -0.7999 0.7999 0.6002 7.6134 435.226)" class="st9" width="0.3" height="2.7"/>
	
		<rect x="441.4" y="205.4" transform="matrix(0.6002 -0.7999 0.7999 0.6002 11.1362 435.8678)" class="st9" width="0.3" height="2.7"/>
	
		<rect x="392.1" y="272" transform="matrix(0.6001 -0.7999 0.7999 0.6001 -63.1132 423.9621)" class="st9" width="0.7" height="6.2"/>
	
		<rect x="404.2" y="256" transform="matrix(0.6002 -0.7999 0.7999 0.6002 -45.5191 427.1143)" class="st9" width="0.7" height="6.2"/>
	
		<rect x="416.2" y="240" transform="matrix(0.6002 -0.7999 0.7999 0.6002 -27.9063 430.3233)" class="st9" width="0.7" height="6.2"/>
	
		<rect x="428.2" y="223.9" transform="matrix(0.6002 -0.7999 0.7999 0.6002 -10.2936 433.5323)" class="st9" width="0.7" height="6.2"/>
	
		<rect x="440.2" y="207.9" transform="matrix(0.6004 -0.7997 0.7997 0.6004 7.2742 436.6552)" class="st9" width="0.7" height="6.2"/>
	<g>
		<rect x="372.1" y="122.9" class="st3" width="2.7" height="34.1"/>
		<rect x="369.4" y="122.9" class="st4" width="2.7" height="34.1"/>
		<line class="st0" x1="372.1" y1="156.9" x2="369.4" y2="156.9"/>
		<line class="st1" x1="374.7" y1="156.9" x2="372.1" y2="156.9"/>
	</g>
	<g>
		<polygon class="st7" points="372.1,122.9 374.7,122.9 373.1,115.9 372.1,115.9 		"/>
		<polygon class="st8" points="372.1,115.9 373.1,115.9 372.1,111.8 		"/>
		<polygon class="st9" points="372.1,111.8 371.1,115.9 372.1,115.9 		"/>
		<polygon class="st10" points="371.1,115.9 369.4,122.9 372.1,122.9 372.1,115.9 		"/>
	</g>
	<g>
		<rect x="378.7" y="122.9" class="st6" width="2.7" height="34.1"/>
		<rect x="376.1" y="122.9" class="st24" width="2.7" height="34.1"/>
		<line class="st0" x1="378.7" y1="156.9" x2="376.1" y2="156.9"/>
		<line class="st1" x1="381.4" y1="156.9" x2="378.7" y2="156.9"/>
	</g>
	<g>
		<polygon class="st7" points="378.7,122.9 381.4,122.9 379.7,115.9 378.7,115.9 		"/>
		<polygon class="st8" points="378.7,115.9 379.7,115.9 378.7,111.8 		"/>
		<polygon class="st9" points="378.7,111.8 377.7,115.9 378.7,115.9 		"/>
		<polygon class="st10" points="377.7,115.9 376.1,122.9 378.7,122.9 378.7,115.9 		"/>
	</g>
	<g>
		<rect x="385.4" y="122.9" class="st25" width="2.7" height="34.1"/>
		<rect x="382.8" y="122.9" class="st26" width="2.7" height="34.1"/>
		<line class="st0" x1="385.4" y1="156.9" x2="382.8" y2="156.9"/>
		<line class="st1" x1="388.1" y1="156.9" x2="385.4" y2="156.9"/>
	</g>
	<g>
		<polygon class="st7" points="385.4,122.9 388.1,122.9 386.4,115.9 385.4,115.9 		"/>
		<polygon class="st8" points="385.4,115.9 386.4,115.9 385.4,111.8 		"/>
		<polygon class="st9" points="385.4,111.8 384.4,115.9 385.4,115.9 		"/>
		<polygon class="st10" points="384.4,115.9 382.8,122.9 385.4,122.9 385.4,115.9 		"/>
	</g>
	<g>
		<rect x="392.1" y="122.9" class="st27" width="2.7" height="34.1"/>
		<rect x="389.4" y="122.9" class="st28" width="2.7" height="34.1"/>
		<line class="st0" x1="392.1" y1="156.9" x2="389.4" y2="156.9"/>
		<line class="st1" x1="394.7" y1="156.9" x2="392.1" y2="156.9"/>
	</g>
	<g>
		<polygon class="st7" points="392.1,122.9 394.7,122.9 393.1,115.9 392.1,115.9 		"/>
		<polygon class="st8" points="392.1,115.9 393.1,115.9 392.1,111.8 		"/>
		<polygon class="st9" points="392.1,111.8 391.1,115.9 392.1,115.9 		"/>
		<polygon class="st10" points="391.1,115.9 389.4,122.9 392.1,122.9 392.1,115.9 		"/>
	</g>
	<g>
		<rect x="398.7" y="122.9" class="st22" width="2.7" height="34.1"/>
		<rect x="396.1" y="122.9" class="st21" width="2.7" height="34.1"/>
		<line class="st0" x1="398.7" y1="156.9" x2="396.1" y2="156.9"/>
		<line class="st1" x1="401.4" y1="156.9" x2="398.7" y2="156.9"/>
	</g>
	<g>
		<polygon class="st7" points="398.7,122.9 401.4,122.9 399.7,115.9 398.7,115.9 		"/>
		<polygon class="st8" points="398.7,115.9 399.7,115.9 398.7,111.8 		"/>
		<polygon class="st9" points="398.7,111.8 397.7,115.9 398.7,115.9 		"/>
		<polygon class="st10" points="397.7,115.9 396.1,122.9 398.7,122.9 398.7,115.9 		"/>
	</g>
	<polygon class="st8" points="361.1,148.2 372.2,214.5 385.4,214.5 385.4,148.2 	"/>
	<polygon class="st9" points="409.7,148.2 385.4,148.2 385.4,214.5 398.7,214.5 	"/>
</g>
</svg>
