<?xml version="1.0" encoding="utf-8"?>
<!-- Generator: Adobe Illustrator 19.1.0, SVG Export Plug-In . SVG Version: 6.00 Build 0)  -->
<!DOCTYPE svg PUBLIC "-//W3C//DTD SVG 1.1//EN" "http://www.w3.org/Graphics/SVG/1.1/DTD/svg11.dtd">
<svg version="1.1" id="Layer_1" xmlns="http://www.w3.org/2000/svg" xmlns:xlink="http://www.w3.org/1999/xlink" x="0px" y="0px"
	 viewBox="0 0 555 312" style="enable-background:new 0 0 555 312;" xml:space="preserve">
<style type="text/css">
	.st0{fill:#E0D6CA;}
	.st1{fill:#152C34;}
	.st2{fill:#F4EEE5;}
	.st3{fill:#E7E6E7;}
	.st4{fill:url(#SVGID_1_);}
	.st5{fill:url(#SVGID_2_);}
	.st6{fill:url(#SVGID_3_);}
	.st7{fill:#0FA3B3;}
	.st8{fill:#9ECDDC;}
	.st9{fill:#FF4B34;}
	.st10{fill:#A3BF33;}
	.st11{fill:#414F5A;}
	.st12{fill:#FEFDFD;}
	.st13{fill:#B2EEF2;}
	.st14{fill:#3D442B;}
	.st15{fill:#57AD92;}
</style>
<g>
	<path class="st0" d="M250.5,230.9h0.4l0,0h126.3c0.1-0.6,0.2-1.2,0.2-1.9V97.6c0-3.7-2.2-6.6-4.9-6.6H167.7c-2.7,0-4.9,3-4.9,6.6
		v9.5c0.1-0.1,0.2-0.1,0.3-0.2v10.3c-9.8,8-12.6,22.2-5.8,33.4c1.6,2.6,3.6,4.8,5.8,6.7v10.3c-0.1-0.1-0.2-0.1-0.3-0.1V229
		c0,0.7,0.1,1.3,0.2,1.9L250.5,230.9C250.5,230.9,250.5,230.9,250.5,230.9z M252.5,152.5l3.2-2.8l9.2,7.9c-0.3,0.3-0.8,0.5-1.3,0.5
		h-22.3c-0.5,0-1-0.2-1.3-0.5l9.2-7.9L252.5,152.5z M240,140c0.3-0.3,0.8-0.5,1.3-0.5h22.3c0.5,0,1,0.2,1.3,0.5l-12.4,10.7L240,140z
		 M256.5,148.9l9-7.8v15.5L256.5,148.9z M239.4,141.1l9,7.8l-9,7.6V141.1z M171.2,161.7c6.9,2.3,14.8,1.7,21.5-2.4
		c12.2-7.4,16.1-23.3,8.8-35.4c-6.4-10.5-19.1-14.9-30.3-11.1v-9c14.2-3.5,29.7,2.5,37.6,15.7c9.8,16.3,4.6,37.4-11.7,47.3
		c-8.1,4.9-17.4,6-25.9,4V161.7z M191.6,129.8l4.9-3c5.7,9.5,2.7,21.8-6.8,27.6l-3-4.9C193.5,145.4,195.7,136.6,191.6,129.8z"/>
	<path class="st0" d="M411.1,239H129c0,0-2.5,0.7-2.9-0.9c0.1,1.1,1.4,3.5,11,5.6h265.6c0,0,8.9-0.6,11.2-4.8v-0.3
		C413.8,238.9,413.1,239.2,411.1,239z"/>
	<path class="st0" d="M414.1,230.9h-36.9H250.9l0,0.1h0l0,0l38.7,0.1c0,0,0,0,0,0h0h0.4c0.2,2-0.5,2.9-1.2,3.4
		c-0.9,0.7-2.1,0.6-2.1,0.6h-33.4c-1.2-0.1-1.9-0.6-2.3-1.2c-1-1.1-0.5-2.8-0.5-3H163h-36.7l-0.2,7.1c0,0,0,0.1,0,0.1
		c0.4,1.6,2.9,0.9,2.9,0.9h282.1c1.9,0.1,2.6-0.1,2.8-0.4c0.2-0.2,0.1-0.4,0.1-0.4V230.9z M390.5,234.7h9.8c0.2,0,0.4,0.2,0.4,0.5
		c0,0.3-0.2,0.5-0.4,0.5h-9.8c-0.2,0-0.4-0.2-0.4-0.5C390.1,234.9,390.3,234.7,390.5,234.7z"/>
	<path class="st0" d="M390.5,235.7h9.8c0.2,0,0.4-0.2,0.4-0.5c0-0.3-0.2-0.5-0.4-0.5h-9.8c-0.2,0-0.4,0.2-0.4,0.5
		C390.1,235.5,390.3,235.7,390.5,235.7z"/>
	<path class="st0" d="M286.8,234.8h-33.4c-0.3,0-0.6-0.1-0.9-0.2c-0.8-0.1-1.3-0.5-1.6-0.8c0.4,0.6,1.1,1.1,2.3,1.2h33.4
		c0,0,1.2,0.1,2.1-0.6C287.9,235,286.8,234.8,286.8,234.8z"/>
	<path class="st0" d="M252.6,234.7c0.2,0,0.3,0.1,0.5,0.1h33.4c0,0,3.4,0.6,3.1-3.6c0,0,0-0.1,0-0.1l-38.7-0.1
		C250.8,231,249.9,233.9,252.6,234.7z"/>
	<path class="st0" d="M250.5,230.9C250.5,230.9,250.5,230.9,250.5,230.9c0,0.2-0.5,1.9,0.5,3c0.3,0.4,0.8,0.7,1.6,0.8
		c-2.6-0.8-1.7-3.7-1.7-3.7l0,0h0l0-0.1l0,0H250.5z"/>
	<path class="st0" d="M286.5,234.8h-33.4c-0.2,0-0.3,0-0.5-0.1c0.3,0.1,0.5,0.1,0.9,0.2h33.4c0,0,1,0.2,1.9-0.4
		c0.7-0.5,1.3-1.4,1.2-3.4h-0.4h0c0,0,0,0,0,0c0,0,0,0.1,0,0.1C289.8,235.3,286.5,234.8,286.5,234.8z"/>
	<path class="st0" d="M403.3,193.1h64.5c1.2,0,2.2-1,2.2-2.2v-85.7c0-1.2-1-2.2-2.2-2.2H439c-0.6-1.6-1.9-3.1-4.4-3.1
		c-2.5,0-3.7,1.5-4.3,3.1h-26.9c-1.2,0-2.2,1-2.2,2.2v85.7C401.1,192.1,402.1,193.1,403.3,193.1z M420.1,139.1l-4,3.4
		c-0.4,0.3-0.9,0.3-1.2-0.1l-1.7-2c-0.3-0.4-0.3-0.9,0.1-1.2c0.4-0.3,0.9-0.3,1.2,0.1l1.1,1.3l3.3-2.8c0.4-0.3,0.9-0.3,1.2,0.1
		C420.5,138.2,420.4,138.7,420.1,139.1z M420.1,152.2l-4,3.4c-0.4,0.3-0.9,0.3-1.2-0.1l-1.7-2c-0.3-0.4-0.3-0.9,0.1-1.2
		c0.4-0.3,0.9-0.3,1.2,0.1l1.1,1.3l3.3-2.8c0.4-0.3,0.9-0.3,1.2,0.1C420.5,151.3,420.4,151.8,420.1,152.2z M420.1,124.8l-4,3.4
		c-0.4,0.3-0.9,0.3-1.2-0.1l-1.7-2c-0.3-0.4-0.3-0.9,0.1-1.2c0.4-0.3,0.9-0.3,1.2,0.1l1.1,1.3l3.3-2.8c0.4-0.3,0.9-0.3,1.2,0.1
		C420.5,124,420.4,124.5,420.1,124.8z M413.2,165.4c0.4-0.3,0.9-0.3,1.2,0.1l1.1,1.3l3.3-2.8c0.4-0.3,0.9-0.3,1.2,0.1
		c0.3,0.4,0.3,0.9-0.1,1.2l-4,3.4c-0.4,0.3-0.9,0.3-1.2-0.1l-1.7-2C412.8,166.3,412.8,165.8,413.2,165.4z M434.6,101.1
		c1.4,0,2.1,0.9,2.5,1.8h-5C432.9,100.9,434.6,101.1,434.6,101.1z"/>
	<path class="st0" d="M420.2,123.6c-0.3-0.4-0.9-0.4-1.2-0.1l-3.3,2.8l-1.1-1.3c-0.3-0.4-0.9-0.4-1.2-0.1c-0.4,0.3-0.4,0.9-0.1,1.2
		l1.7,2c0.3,0.4,0.9,0.4,1.2,0.1l4-3.4C420.4,124.5,420.5,124,420.2,123.6z"/>
	<path class="st0" d="M420.2,137.8c-0.3-0.4-0.9-0.4-1.2-0.1l-3.3,2.8l-1.1-1.3c-0.3-0.4-0.9-0.4-1.2-0.1c-0.4,0.3-0.4,0.9-0.1,1.2
		l1.7,2c0.3,0.4,0.9,0.4,1.2,0.1l4-3.4C420.4,138.7,420.5,138.2,420.2,137.8z"/>
	<path class="st0" d="M419,150.8l-3.3,2.8l-1.1-1.3c-0.3-0.4-0.9-0.4-1.2-0.1c-0.4,0.3-0.4,0.9-0.1,1.2l1.7,2
		c0.3,0.4,0.9,0.4,1.2,0.1l4-3.4c0.4-0.3,0.4-0.9,0.1-1.2C419.9,150.6,419.3,150.5,419,150.8z"/>
	<path class="st0" d="M414.8,168.7c0.3,0.4,0.9,0.4,1.2,0.1l4-3.4c0.4-0.3,0.4-0.9,0.1-1.2c-0.3-0.4-0.9-0.4-1.2-0.1l-3.3,2.8
		l-1.1-1.3c-0.3-0.4-0.9-0.4-1.2-0.1c-0.4,0.3-0.4,0.9-0.1,1.2L414.8,168.7z"/>
	<path class="st0" d="M139.9,216.4v-52.9c0-2.5-2-4.5-4.5-4.5h-26.1c-2.5,0-4.5,2-4.5,4.5v52.9c0,2.5,2,4.5,4.5,4.5h26.1
		C137.9,220.9,139.9,218.9,139.9,216.4z"/>
	<path class="st0" d="M241.3,158.1h22.3c0.5,0,0.9-0.2,1.3-0.5l-9.2-7.9l-3.2,2.8l-3.2-2.8l-9.2,7.9
		C240.4,157.9,240.8,158.1,241.3,158.1z"/>
	<path class="st0" d="M264.9,140c-0.3-0.3-0.8-0.5-1.3-0.5h-22.3c-0.5,0-0.9,0.2-1.3,0.5l12.4,10.7L264.9,140z"/>
	<polygon class="st0" points="239.4,141.1 239.4,156.6 248.4,148.9 	"/>
	<polygon class="st0" points="265.5,141.1 256.5,148.9 265.5,156.6 	"/>
	<path class="st0" d="M70.8,117.2l68.4,18.9c0.2-5.8,1.6-11.5,4.1-16.7L75,100.5c-4.6-1.1-9.3,1.7-10.4,6.3
		C63.4,111.4,66.2,116.1,70.8,117.2z"/>
	<path class="st0" d="M163.1,157.3c-2.3-1.8-4.3-4-5.8-6.7c-6.7-11.1-4-25.4,5.8-33.4v-10.3c-0.1,0.1-0.2,0.1-0.3,0.2
		c-0.4,0.2-0.8,0.4-1.2,0.7c-16.3,9.8-21.5,31-11.7,47.3c3.3,5.4,7.8,9.5,12.9,12.4c0.1,0.1,0.2,0.1,0.3,0.1V157.3z"/>
	<path class="st0" d="M197.1,166.7c16.3-9.8,21.5-31,11.7-47.3c-8-13.2-23.4-19.1-37.6-15.7v9c11.2-3.7,23.9,0.6,30.3,11.1
		c7.4,12.2,3.4,28.1-8.8,35.4c-6.7,4.1-14.6,4.7-21.5,2.4v9C179.7,172.8,189,171.6,197.1,166.7z"/>
	<path class="st0" d="M189.7,154.4c9.5-5.7,12.5-18.1,6.8-27.6l-4.9,3c4.1,6.8,1.9,15.6-4.9,19.7L189.7,154.4z"/>
	<polygon class="st0" points="536.2,218 536.2,231.3 524.3,231.3 524.3,238.9 536.2,238.9 548,238.9 548,218 	"/>
	<polygon class="st0" points="524.3,217.3 512.5,217.3 512.5,238.9 524.3,238.9 524.3,231.3 	"/>
	<polygon class="st0" points="512.5,195.8 500.7,195.8 500.7,180.5 488.9,180.5 488.9,213.9 477.1,213.9 477.1,228.5 477.1,238.9 
		488.9,238.9 500.7,238.9 512.5,238.9 512.5,217.3 	"/>
	<rect x="465.2" y="228.5" class="st0" width="11.8" height="10.4"/>
	<path class="st0" d="M89.2,199c-0.5-25.5-18-45.9-39-45.4c-21,0.4-37.5,21.5-37,47c0.5,24,15.9,43.4,35.1,45.3l1.5,0.2
		c1.2-0.5,21.8,3.1,49-24c0,0-7.1,1.5-14.9,1.6C87.4,216.4,89.4,208,89.2,199z"/>
</g>
<g>
	<g>
		<g>
			<g>
				<g>
					<g>
						<path class="st1" d="M368.6,218.4c0,3.7-2.2,6.6-4.9,6.6H158.9c-2.7,0-4.9-3-4.9-6.6V87c0-3.7,2.2-6.6,4.9-6.6h204.8
							c2.7,0,4.9,3,4.9,6.6V218.4z"/>
						<rect x="162.5" y="88.3" class="st2" width="198.1" height="122.1"/>
						<g>
							<g>
								<path class="st1" d="M117.4,227c0,0-1.8,3.3,10.9,6.1h265.6c0,0,8.9-0.6,11.2-4.8l0-2.3L117.4,227z"/>
								<path class="st3" d="M117.5,220.3h287.8v7.4c0,0,0.4,1-3,0.7H120.2c0,0-2.7,0.7-2.9-1L117.5,220.3z"/>
								<path class="st1" d="M391.9,224.6c0,0.3-0.2,0.5-0.4,0.5h-9.8c-0.2,0-0.4-0.2-0.4-0.5l0,0c0-0.3,0.2-0.5,0.4-0.5h9.8
									C391.7,224.1,391.9,224.3,391.9,224.6L391.9,224.6z"/>
							</g>
							<path class="st1" d="M241.8,220.3c0,0-1.1,3.7,2.6,4.1h33.4c0,0,3.6,0.5,3.1-3.9L241.8,220.3z"/>
							<g>
								<linearGradient id="SVGID_1_" gradientUnits="userSpaceOnUse" x1="242.6105" y1="224.0641" x2="242.6105" y2="220.252">
									<stop  offset="2.439020e-02" style="stop-color:#5F6767"/>
									<stop  offset="0.4756" style="stop-color:#676B6C"/>
									<stop  offset="0.5137" style="stop-color:#717576"/>
									<stop  offset="0.6192" style="stop-color:#878A8B"/>
									<stop  offset="0.7202" style="stop-color:#949899"/>
									<stop  offset="0.811" style="stop-color:#999C9D"/>
								</linearGradient>
								<path class="st4" d="M242,220.3L242,220.3L242,220.3l-0.4-0.1c0,0-1,3.2,2.1,3.8C241.1,223.3,242,220.3,242,220.3z"/>
								<linearGradient id="SVGID_2_" gradientUnits="userSpaceOnUse" x1="262.4125" y1="224.2498" x2="262.4125" y2="220.4552">
									<stop  offset="2.439020e-02" style="stop-color:#5F6767"/>
									<stop  offset="0.4756" style="stop-color:#676B6C"/>
									<stop  offset="0.5137" style="stop-color:#717576"/>
									<stop  offset="0.6192" style="stop-color:#878A8B"/>
									<stop  offset="0.7202" style="stop-color:#949899"/>
									<stop  offset="0.811" style="stop-color:#999C9D"/>
								</linearGradient>
								<path class="st5" d="M281.1,220.5h-0.4v0.1c0.3,4.2-3.1,3.6-3.1,3.6h-33.4c-0.2,0-0.3,0-0.5-0.1c0.3,0.1,0.5,0.1,0.9,0.2
									H278C278,224.2,281.4,224.8,281.1,220.5z"/>
								<linearGradient id="SVGID_3_" gradientUnits="userSpaceOnUse" x1="280.6949" y1="220.5453" x2="280.6949" y2="220.4552">
									<stop  offset="2.439020e-02" style="stop-color:#5F6767"/>
									<stop  offset="0.4756" style="stop-color:#676B6C"/>
									<stop  offset="0.5137" style="stop-color:#717576"/>
									<stop  offset="0.6192" style="stop-color:#878A8B"/>
									<stop  offset="0.7202" style="stop-color:#949899"/>
									<stop  offset="0.811" style="stop-color:#999C9D"/>
								</linearGradient>
								<path class="st6" d="M280.7,220.5L280.7,220.5L280.7,220.5C280.7,220.5,280.7,220.5,280.7,220.5z"/>
							</g>
						</g>
						<path class="st7" d="M222.1,146.1v2.7h-40.5H179v-2.7v-40.5h2.7v40.5H222.1z M216.7,105.7l-10.6,1.7l2.6,3.1l-22.5,18.4
							l1.7,2.1l22.5-18.4l2.6,3.1L216.7,105.7z M213.8,121.1l-2.5-3v25.4h5.4v-30.1L213.8,121.1z M195.1,128.6v14.9h5.4v-19.3
							L195.1,128.6z M187.5,134.8l-0.5-0.6v9.2h5.4v-12.7L187.5,134.8z M203.2,121.9v21.5h5.4v-25.9L203.2,121.9z"/>
						<path class="st8" d="M222.1,202.2v2.7h-40.5H179v-2.7v-40.5h2.7v40.5H222.1z M216.7,161.8l-10.6,1.7l2.6,3.1L186.2,185
							l1.7,2.1l22.5-18.4l2.6,3.1L216.7,161.8z M213.8,177.2l-2.5-3v25.4h5.4v-30.1L213.8,177.2z M195.1,184.7v14.9h5.4v-19.3
							L195.1,184.7z M187.5,190.9l-0.5-0.6v9.2h5.4v-12.7L187.5,190.9z M203.2,178v21.5h5.4v-25.9L203.2,178z"/>
						<rect x="226.1" y="105.1" class="st9" width="44.3" height="7.5"/>
						<rect x="226.1" y="121.2" class="st7" width="44.3" height="3.4"/>
						<rect x="226.1" y="124.6" class="st10" width="44.3" height="30.8"/>
						<rect x="278" y="97.2" class="st10" width="75" height="30.8"/>
					</g>
					<rect x="225.9" y="166.6" class="st8" width="44.7" height="12.4"/>
					<rect x="225.9" y="187.8" class="st7" width="44.7" height="10.6"/>
				</g>
				<g>
					<path class="st1" d="M461.3,180.3c0,1.2-1,2.2-2.2,2.2h-64.5c-1.2,0-2.2-1-2.2-2.2V94.5c0-1.2,1-2.2,2.2-2.2H459
						c1.2,0,2.2,1,2.2,2.2V180.3z"/>
					<rect x="397.6" y="97.6" class="st2" width="56.6" height="81.4"/>
					<path class="st9" d="M430.8,95.8c0,0,0.2-6.7-5.1-6.7c-5.2,0-4.9,6.7-4.9,6.7h-9.2v7.1H440v-7.1H430.8z M425.8,90.4
						c3.1,0,3,4.2,2.9,4.7l-5.8,0C422.7,90.2,425.8,90.4,425.8,90.4z"/>
					<g>
						<g>
							<rect x="415.3" y="115.3" class="st11" width="31.8" height="1.8"/>
						</g>
						<g>
							<rect x="415.3" y="129.4" class="st11" width="31.8" height="1.8"/>
						</g>
						<g>
							<rect x="415.3" y="141.8" class="st11" width="31.8" height="1.8"/>
						</g>
						<g>
							<rect x="415.3" y="156" class="st11" width="31.8" height="1.8"/>
						</g>
					</g>
					<g>
						<path class="st11" d="M410.1,112.9l-3.3,2.8l-1.1-1.3c-0.3-0.4-0.9-0.4-1.2-0.1c-0.4,0.3-0.4,0.9-0.1,1.2l1.7,2
							c0.3,0.4,0.9,0.4,1.2,0.1l4-3.4c0.4-0.3,0.4-0.9,0.1-1.2C411,112.6,410.5,112.6,410.1,112.9z"/>
						<path class="st11" d="M410.1,127.1l-3.3,2.8l-1.1-1.3c-0.3-0.4-0.9-0.4-1.2-0.1c-0.4,0.3-0.4,0.9-0.1,1.2l1.7,2
							c0.3,0.4,0.9,0.4,1.2,0.1l4-3.4c0.4-0.3,0.4-0.9,0.1-1.2C411,126.8,410.5,126.8,410.1,127.1z"/>
						<path class="st11" d="M410.1,140.2l-3.3,2.8l-1.1-1.3c-0.3-0.4-0.9-0.4-1.2-0.1c-0.4,0.3-0.4,0.9-0.1,1.2l1.7,2
							c0.3,0.4,0.9,0.4,1.2,0.1l4-3.4c0.4-0.3,0.4-0.9,0.1-1.2C411,139.9,410.5,139.9,410.1,140.2z"/>
						<path class="st11" d="M410,153.5l-3.3,2.8l-1.1-1.3c-0.3-0.4-0.9-0.4-1.2-0.1c-0.4,0.3-0.4,0.9-0.1,1.2l1.7,2
							c0.3,0.4,0.9,0.4,1.2,0.1l4-3.4c0.4-0.3,0.4-0.9,0.1-1.2C411,153.2,410.4,153.2,410,153.5z"/>
					</g>
				</g>
				<g>
					<g>
						<path class="st1" d="M126.6,148.3h-26.1c-2.5,0-4.5,2-4.5,4.5v52.9c0,2.5,2,4.5,4.5,4.5h26.1c2.5,0,4.5-2,4.5-4.5v-52.9
							C131.1,150.4,129.1,148.3,126.6,148.3z"/>
						<polygon class="st12" points="119.6,152.9 107.5,152.9 107.5,151.6 119.6,151.6 119.6,152.9 						"/>
						<path class="st12" d="M124.8,152.3c0,0.6-0.5,1.2-1.2,1.2c-0.6,0-1.2-0.5-1.2-1.2c0-0.6,0.5-1.2,1.2-1.2
							C124.2,151.2,124.8,151.7,124.8,152.3z"/>
						<rect x="108" y="202.1" class="st12" width="11" height="3.4"/>
					</g>
					<rect x="100.3" y="157.8" class="st13" width="24.8" height="26.5"/>
					<rect x="100.3" y="187.8" class="st9" width="24.8" height="8.8"/>
				</g>
				<g>
					<g>
						<path class="st12" d="M243.6,141.9l-3.2-2.8l-9.2,7.9c0.3,0.3,0.8,0.5,1.3,0.5h22.3c0.5,0,0.9-0.2,1.3-0.5l-9.2-7.9
							L243.6,141.9z"/>
						<path class="st12" d="M256.1,129.3c-0.3-0.3-0.8-0.5-1.3-0.5h-22.3c-0.5,0-0.9,0.2-1.3,0.5l12.4,10.7L256.1,129.3z"/>
						<polygon class="st12" points="230.6,130.5 230.6,145.9 239.6,138.3 						"/>
						<polygon class="st12" points="247.6,138.3 256.6,145.9 256.6,130.5 						"/>
					</g>
				</g>
			</g>
		</g>
		<g>
			<circle class="st2" cx="170.7" cy="126.5" r="31.3"/>
			<g>
				<g>
					<path class="st1" d="M62,106.6l68.4,18.9c0.2-5.8,1.6-11.5,4.1-16.7L66.1,89.9c-4.6-1.1-9.3,1.7-10.4,6.3
						C54.6,100.8,57.4,105.5,62,106.6z"/>
					<path class="st1" d="M141,144.4c9.8,16.3,31,21.5,47.3,11.7c16.3-9.8,21.5-31,11.7-47.3c-9.8-16.3-31-21.5-47.3-11.7
						C136.5,107,131.2,128.1,141,144.4z M157.2,104.5c12.2-7.4,28.1-3.4,35.4,8.8c7.4,12.2,3.4,28.1-8.8,35.4
						c-12.2,7.4-28.1,3.4-35.4-8.8C141.1,127.8,145,111.9,157.2,104.5z"/>
					<path class="st1" d="M187.7,116.2l-4.9,3c4.1,6.8,1.9,15.6-4.9,19.7l3,4.9C190.4,138.1,193.4,125.7,187.7,116.2z"/>
				</g>
			</g>
		</g>
		<rect x="154.3" y="87.6" class="st1" width="8.1" height="113.8"/>
		<g>
			<g>
				<g>
					<rect x="296.6" y="131.7" class="st14" width="56.3" height="4.1"/>
				</g>
			</g>
			<g>
				<g>
					<rect x="278.3" y="139" class="st14" width="74.6" height="4.1"/>
				</g>
			</g>
			<g>
				<g>
					<rect x="278.3" y="147.5" class="st14" width="74.6" height="4.1"/>
				</g>
			</g>
			<g>
				<g>
					<rect x="278.3" y="155.1" class="st14" width="74.6" height="4.1"/>
				</g>
			</g>
			<g>
				<g>
					<rect x="278.3" y="162.4" class="st14" width="74.6" height="4.1"/>
				</g>
			</g>
			<g>
				<g>
					<rect x="278.3" y="170.9" class="st14" width="74.6" height="4.1"/>
				</g>
			</g>
			<g>
				<g>
					<rect x="278.3" y="180.4" class="st14" width="74.6" height="4.1"/>
				</g>
			</g>
			<g>
				<g>
					<rect x="278.3" y="187.7" class="st14" width="74.6" height="4.1"/>
				</g>
			</g>
			<g>
				<g>
					<rect x="278.3" y="196.2" class="st14" width="74.6" height="4.1"/>
				</g>
			</g>
		</g>
	</g>
	<g>
		<rect x="527.3" y="207.4" class="st1" width="11.8" height="20.9"/>
		<rect x="515.5" y="220.6" class="st9" width="11.8" height="7.7"/>
		<rect x="503.7" y="206.7" class="st15" width="11.8" height="21.6"/>
		<rect x="491.8" y="185.2" class="st1" width="11.8" height="43.1"/>
		<rect x="480" y="169.9" class="st9" width="11.8" height="58.4"/>
		<rect x="468.2" y="203.3" class="st10" width="11.8" height="25"/>
		<rect x="456.4" y="217.9" class="st15" width="11.8" height="10.4"/>
	</g>
	<g>
		<path class="st8" d="M4.4,190c0.5,24,15.9,43.4,35.1,45.3l1.5,0.2c1.2-0.5,21.8,3.1,49-24c0,0-7.1,1.5-14.9,1.6
			c3.5-7.2,5.4-15.6,5.2-24.6c-0.5-25.5-18-45.9-39-45.4C20.4,143.4,3.9,164.4,4.4,190z"/>
		<circle class="st2" cx="42" cy="208.4" r="4.8"/>
		<circle class="st2" cx="41.7" cy="191" r="4.8"/>
		<path class="st2" d="M41.2,168.1c2.6-0.1,4.8,2,4.9,4.7c0.1,2.6-2,4.8-4.7,4.9c-2.6,0.1-4.8-2-4.9-4.7
			C36.4,170.4,38.5,168.2,41.2,168.1z"/>
	</g>
</g>
</svg>
